<svg width="3808" height="2078" viewBox="0 0 3808 2078" fill="none" xmlns="http://www.w3.org/2000/svg">
<path d="M1154.3 751.22C1154.3 748.318 1155.75 746.867 1158.66 746.867L1403.83 746.812C1404.25 746.82 1404.67 746.709 1405.02 746.491C1405.38 746.273 1405.67 745.958 1405.86 745.582C1406.04 745.206 1406.11 744.785 1406.07 744.369C1406.02 743.952 1405.86 743.558 1405.6 743.231C1398.51 733.9 1390.96 725.212 1382.95 717.167C1175.23 508.253 966.953 298.439 758.128 87.7245C756.82 86.3931 755.041 85.6296 753.174 85.5986C751.308 85.5677 749.505 86.2719 748.153 87.5592C741.026 94.2817 734.156 101.041 727.543 107.837C549.726 290.412 367.941 476.844 182.189 667.133C154.91 695.07 125.482 722.567 101.4 751.386C100.408 752.561 99.783 753.939 99.5258 755.519C99.4613 755.859 99.474 756.21 99.5631 756.545C99.6522 756.881 99.8155 757.194 100.041 757.462C100.267 757.73 100.551 757.946 100.871 758.096C101.191 758.246 101.541 758.325 101.895 758.329L347.459 758.604C348.453 758.604 349.406 758.999 350.109 759.702C350.812 760.404 351.207 761.358 351.207 762.351C351.317 933.685 351.298 1104.8 351.151 1275.69C351.151 1294.5 353.025 1310.59 356.772 1323.96C377.769 1398.85 470.186 1437.97 533.12 1470.43C796.869 1606.6 1027.17 1725.11 1224.02 1825.95C1230.59 1829.33 1237.52 1831.66 1244.79 1832.95C1253.5 1834.53 1253.94 1833.24 1246.11 1829.09C1207.43 1808.7 1177.23 1781.87 1162.62 1742.25C1156.93 1726.89 1154.1 1704.87 1154.14 1676.18C1154.54 1351.73 1154.6 1043.41 1154.3 751.22Z" stroke="#80D6F7" stroke-width="2"/>
<path d="M1894.3 984.749C1894.46 984.41 1894.7 984.121 1895.02 983.916C1895.33 983.712 1895.69 983.599 1896.06 983.591H1998.35C1998.73 983.593 1999.11 983.709 1999.44 983.925C1999.76 984.14 2000.01 984.446 2000.16 984.804L2029.1 1051.04C2029.25 1051.4 2029.5 1051.7 2029.82 1051.92C2030.15 1052.13 2030.53 1052.25 2030.92 1052.25L2071.81 1052.14C2072.14 1052.14 2072.47 1052.06 2072.76 1051.9C2073.06 1051.74 2073.31 1051.51 2073.49 1051.23C2073.67 1050.95 2073.78 1050.63 2073.8 1050.3C2073.82 1049.97 2073.76 1049.63 2073.62 1049.33L1948.91 777.671C1948.76 777.317 1948.51 777.016 1948.18 776.805C1947.86 776.593 1947.48 776.48 1947.1 776.48C1946.71 776.48 1946.33 776.593 1946.01 776.805C1945.69 777.016 1945.43 777.317 1945.28 777.671L1820.12 1049.72C1819.99 1050.01 1819.93 1050.34 1819.95 1050.67C1819.97 1051 1820.07 1051.32 1820.25 1051.6C1820.42 1051.88 1820.66 1052.11 1820.95 1052.27C1821.24 1052.43 1821.56 1052.52 1821.89 1052.53L1862.94 1052.47C1863.32 1052.46 1863.68 1052.35 1863.99 1052.15C1864.3 1051.94 1864.55 1051.65 1864.71 1051.31L1894.3 984.749Z" stroke="#9B9A9A" stroke-width="2"/>
<path d="M2444.73 984.804C2444.89 984.442 2445.15 984.134 2445.48 983.919C2445.81 983.704 2446.2 983.59 2446.6 983.592H2548.88C2549.28 983.59 2549.67 983.704 2550 983.919C2550.33 984.134 2550.59 984.442 2550.75 984.804L2579.63 1051.31C2579.79 1051.68 2580.05 1051.98 2580.39 1052.2C2580.72 1052.41 2581.11 1052.53 2581.5 1052.53L2622.34 1052.36C2622.68 1052.35 2623 1052.26 2623.3 1052.1C2623.59 1051.93 2623.84 1051.7 2624.02 1051.41C2624.2 1051.13 2624.3 1050.81 2624.33 1050.47C2624.35 1050.14 2624.29 1049.8 2624.16 1049.5L2499.45 777.727C2499.29 777.36 2499.03 777.048 2498.7 776.829C2498.36 776.609 2497.97 776.492 2497.57 776.492C2497.18 776.492 2496.79 776.609 2496.45 776.829C2496.12 777.048 2495.86 777.36 2495.7 777.727L2370.93 1049C2370.8 1049.31 2370.74 1049.65 2370.77 1049.99C2370.79 1050.33 2370.91 1050.66 2371.09 1050.94C2371.28 1051.23 2371.53 1051.46 2371.83 1051.62C2372.13 1051.78 2372.47 1051.87 2372.81 1051.86L2413.59 1051.92C2413.99 1051.92 2414.37 1051.81 2414.71 1051.59C2415.04 1051.38 2415.3 1051.07 2415.46 1050.71L2444.73 984.804Z" stroke="#9B9A9A" stroke-width="2"/>
<path d="M1573.13 900.054C1577.54 866.055 1601.18 834.591 1633.8 824.067C1673.85 811.209 1712.39 819.309 1749.42 848.367C1749.53 848.445 1749.66 848.492 1749.79 848.505C1749.93 848.518 1750.06 848.495 1750.18 848.439C1750.31 848.383 1750.41 848.297 1750.49 848.187C1750.57 848.078 1750.62 847.95 1750.63 847.816L1752.78 807.26C1752.81 806.708 1752.7 806.154 1752.45 805.652C1752.2 805.15 1751.82 804.717 1751.35 804.395C1643.56 733.036 1508.93 813.211 1528.82 944.302C1544.42 1046.79 1656.62 1087.02 1742.26 1040.62C1747.66 1037.72 1750.36 1033.2 1750.36 1027.07L1750.41 991.966C1750.41 987.117 1748.54 986.235 1744.79 989.321C1666.21 1054.4 1558.91 1008.77 1573.13 900.054Z" stroke="#9B9A9A" stroke-width="2"/>
<path d="M2192.71 833.766C2206.55 806.821 2247.99 812.386 2262.26 835.805C2264.36 839.221 2267.17 839.974 2270.69 838.064L2295.27 824.895C2298.61 823.095 2299.42 820.523 2297.7 817.18C2267.66 759.432 2161.85 765.989 2146.31 831.562C2130.88 896.473 2186.82 919.562 2233.77 942.815C2289.76 970.532 2259.84 1033.4 2202.58 1016.71C2187 1012.19 2176.37 1001.21 2170.67 983.757C2170.45 983.095 2170.01 982.912 2169.35 983.206L2137.77 998.194C2137.35 998.395 2137.01 998.735 2136.81 999.156C2136.61 999.577 2136.56 1000.05 2136.67 1000.51C2144.42 1030.3 2162.7 1048.87 2191.5 1056.22C2239.01 1068.34 2295.66 1050.93 2305.96 996.21C2318.25 931.133 2270.75 913.17 2224.29 889.586C2203.79 879.226 2179.05 860.216 2192.71 833.766Z" stroke="#9B9A9A" stroke-width="2"/>
<path d="M3410.17 918.955C3410.17 881.514 3395.3 845.606 3368.82 819.13C3342.34 792.655 3306.43 777.781 3268.98 777.781C3231.54 777.781 3195.63 792.655 3169.15 819.13C3142.67 845.606 3127.79 881.514 3127.79 918.955C3127.79 956.397 3142.67 992.305 3169.15 1018.78C3195.63 1045.26 3231.54 1060.13 3268.98 1060.13C3306.43 1060.13 3342.34 1045.26 3368.82 1018.78C3395.3 992.305 3410.17 956.397 3410.17 918.955Z" stroke="#9B9A9A" stroke-width="2"/>
<path d="M2813.73 785.989L2813.29 1050.81C2813.29 1051.24 2813.46 1051.64 2813.76 1051.94C2814.06 1052.24 2814.47 1052.41 2814.89 1052.41L2915.41 1052.63C2931.51 1052.66 2947.46 1049.52 2962.35 1043.38C2977.23 1037.25 2990.77 1028.24 3002.17 1016.88C3013.58 1005.51 3022.64 992.014 3028.83 977.15C3035.01 962.286 3038.22 946.349 3038.24 930.248V907.436C3038.27 891.335 3035.13 875.386 3029 860.5C3022.86 845.614 3013.85 832.082 3002.49 820.677C2991.12 809.271 2977.62 800.216 2962.75 794.028C2947.89 787.84 2931.95 784.64 2915.85 784.611L2815.33 784.391C2814.91 784.391 2814.5 784.559 2814.2 784.859C2813.9 785.158 2813.73 785.565 2813.73 785.989Z" stroke="#9B9A9A" stroke-width="2"/>
<path d="M1208.92 1175.57C1208.88 1345.4 1208.86 1513.68 1208.86 1680.42C1208.92 1763.08 1267.72 1821.05 1349.55 1821.05C2104.76 1820.97 2859.12 1820.97 3612.64 1821.05C3614.48 1821.05 3615.4 1820.13 3615.4 1818.29V1173.81C3615.4 1173.38 3615.23 1172.97 3614.94 1172.68C3614.65 1172.38 3614.26 1172.21 3613.85 1172.21H1212.28C1211.39 1172.21 1210.53 1172.56 1209.9 1173.19C1209.27 1173.82 1208.92 1174.68 1208.92 1175.57Z" stroke="#80AED6" stroke-width="2"/>
<path d="M964.014 803.787C964.014 791.76 959.236 780.225 950.73 771.72C942.224 763.215 930.688 758.438 918.66 758.438H819.134C807.105 758.438 795.569 763.215 787.063 771.72C778.558 780.225 773.779 791.76 773.779 803.787V878.397C773.779 890.424 778.558 901.959 787.063 910.464C795.569 918.969 807.105 923.747 819.134 923.747H918.66C930.688 923.747 942.224 918.969 950.73 910.464C959.236 901.959 964.014 890.424 964.014 878.397V803.787Z" stroke="#80D6F7" stroke-width="2"/>
<path d="M731.054 804.943C731.033 798.814 729.804 792.749 727.439 787.095C725.073 781.441 721.617 776.307 717.268 771.989C712.918 767.67 707.761 764.25 702.089 761.924C696.418 759.599 690.344 758.412 684.214 758.434L585.571 758.778C579.441 758.8 573.376 760.028 567.721 762.393C562.066 764.759 556.932 768.214 552.613 772.563C548.294 776.912 544.874 782.069 542.548 787.74C540.222 793.411 539.036 799.484 539.057 805.613L539.307 877.247C539.329 883.376 540.557 889.441 542.922 895.095C545.288 900.75 548.744 905.883 553.094 910.202C557.443 914.52 562.601 917.94 568.272 920.266C573.943 922.592 580.017 923.778 586.147 923.756L684.79 923.412C690.92 923.391 696.985 922.162 702.64 919.797C708.295 917.432 713.429 913.976 717.748 909.627C722.067 905.278 725.487 900.121 727.813 894.45C730.139 888.779 731.326 882.706 731.304 876.577L731.054 804.943Z" stroke="#80D6F7" stroke-width="2"/>
<path d="M731.467 1008.83C731.489 1002.57 730.276 996.358 727.898 990.56C725.52 984.762 722.023 979.489 717.607 975.042C713.191 970.596 707.942 967.062 702.16 964.644C696.379 962.226 690.177 960.97 683.91 960.948L586.92 960.61C580.652 960.588 574.442 961.8 568.644 964.178C562.845 966.556 557.572 970.053 553.125 974.468C548.678 978.884 545.144 984.132 542.726 989.913C540.307 995.695 539.051 1001.9 539.029 1008.16L538.784 1078.36C538.763 1084.63 539.975 1090.84 542.353 1096.64C544.732 1102.43 548.228 1107.71 552.645 1112.15C557.061 1116.6 562.309 1120.13 568.091 1122.55C573.873 1124.97 580.074 1126.23 586.341 1126.25L683.332 1126.59C689.599 1126.61 695.809 1125.4 701.608 1123.02C707.406 1120.64 712.68 1117.14 717.127 1112.73C721.574 1108.31 725.107 1103.06 727.526 1097.28C729.944 1091.5 731.2 1085.3 731.222 1079.03L731.467 1008.83Z" stroke="#80D6F7" stroke-width="2"/>
<path d="M963.991 1005.41C963.971 999.497 962.786 993.647 960.504 988.193C958.222 982.739 954.889 977.788 950.693 973.622C946.498 969.456 941.523 966.157 936.052 963.914C930.582 961.671 924.723 960.526 918.811 960.547L819.175 960.895C813.263 960.915 807.412 962.1 801.958 964.382C796.503 966.663 791.551 969.997 787.385 974.192C783.219 978.387 779.919 983.361 777.676 988.831C775.432 994.301 774.288 1000.16 774.309 1006.07L774.573 1081.78C774.594 1087.69 775.779 1093.54 778.061 1099C780.342 1104.45 783.676 1109.4 787.871 1113.57C792.067 1117.74 797.042 1121.03 802.512 1123.28C807.983 1125.52 813.841 1126.66 819.754 1126.64L919.389 1126.3C925.302 1126.28 931.152 1125.09 936.607 1122.81C942.062 1120.53 947.014 1117.19 951.18 1113C955.346 1108.8 958.645 1103.83 960.889 1098.36C963.132 1092.89 964.277 1087.03 964.256 1081.12L963.991 1005.41Z" stroke="#80D6F7" stroke-width="2"/>
<path d="M1945.99 861.536C1937.73 890.3 1923.56 916.97 1912.16 944.797C1912.05 945.062 1912.01 945.349 1912.04 945.633C1912.06 945.917 1912.16 946.19 1912.32 946.429C1912.48 946.667 1912.69 946.864 1912.94 947.002C1913.19 947.14 1913.47 947.216 1913.75 947.222H1981.21C1983.74 947.222 1984.46 946.101 1983.36 943.86C1970.17 917.007 1958.61 889.529 1948.69 861.426C1947.7 858.634 1946.8 858.671 1945.99 861.536Z" stroke="#9B9A9A" stroke-width="2"/>
<path d="M2496.36 861.867C2488.76 889.694 2474.81 917.466 2462.08 944.577C2461.95 944.854 2461.9 945.16 2461.92 945.466C2461.94 945.772 2462.03 946.068 2462.2 946.326C2462.36 946.585 2462.59 946.797 2462.86 946.944C2463.13 947.091 2463.43 947.167 2463.74 947.166L2532.95 947.277C2533.21 947.274 2533.47 947.206 2533.69 947.079C2533.92 946.953 2534.11 946.771 2534.25 946.552C2534.38 946.332 2534.46 946.081 2534.48 945.823C2534.49 945.564 2534.44 945.306 2534.33 945.072C2520.59 916.786 2508.96 889.014 2499.45 861.757C2498.31 858.524 2497.28 858.561 2496.36 861.867Z" stroke="#9B9A9A" stroke-width="2"/>
<path d="M3268.46 1019.13C3281.13 1019.2 3293.69 1016.67 3305.42 1011.69C3317.16 1006.71 3327.83 999.379 3336.84 990.113C3345.85 980.847 3353.02 969.829 3357.93 957.687C3362.84 945.545 3365.41 932.518 3365.48 919.348C3365.55 906.178 3363.12 893.124 3358.33 880.931C3353.55 868.739 3346.5 857.646 3337.59 848.286C3328.67 838.927 3318.08 831.484 3306.39 826.383C3294.71 821.282 3282.18 818.622 3269.51 818.556C3256.84 818.49 3244.27 821.018 3232.54 825.996C3220.81 830.975 3210.13 838.306 3201.12 847.572C3192.11 856.837 3184.95 867.856 3180.03 879.998C3175.12 892.14 3172.56 905.167 3172.49 918.337C3172.42 931.507 3174.85 944.561 3179.63 956.754C3184.42 968.946 3191.47 980.039 3200.38 989.399C3209.29 998.758 3219.89 1006.2 3231.57 1011.3C3243.25 1016.4 3255.79 1019.06 3268.46 1019.13Z" stroke="#9B9A9A" stroke-width="2"/>
<path d="M2857.27 825.83L2856.61 1010.54C2856.61 1011.16 2856.86 1011.77 2857.3 1012.21C2857.74 1012.66 2858.35 1012.91 2858.98 1012.91L2911.49 1013.07C2933.04 1013.14 2953.73 1004.54 2969.01 989.152C2984.3 973.765 2992.93 952.855 2993 931.022L2993.11 906.226C2993.15 895.414 2991.08 884.702 2987.03 874.7C2982.98 864.698 2977.03 855.602 2969.51 847.932C2962 840.262 2953.06 834.167 2943.22 829.997C2933.38 825.827 2922.82 823.662 2912.15 823.626L2859.64 823.461C2859.33 823.461 2859.02 823.522 2858.73 823.641C2858.44 823.76 2858.18 823.935 2857.96 824.155C2857.74 824.375 2857.57 824.636 2857.45 824.924C2857.33 825.211 2857.27 825.519 2857.27 825.83Z" stroke="#9B9A9A" stroke-width="2"/>
<path d="M1714.65 1221.8C1714.86 1221.55 1714.99 1221.25 1715.04 1220.92C1715.08 1220.6 1715.03 1220.27 1714.89 1219.97C1714.75 1219.68 1714.53 1219.43 1714.25 1219.25C1713.97 1219.08 1713.65 1218.99 1713.32 1218.99L1657.55 1219.1C1657.26 1219.1 1656.96 1219.17 1656.7 1219.32C1656.44 1219.46 1656.22 1219.67 1656.07 1219.93L1602.56 1311.12C1602.4 1311.38 1602.32 1311.67 1602.31 1311.97C1602.31 1312.27 1602.38 1312.57 1602.52 1312.83C1602.67 1313.1 1602.88 1313.32 1603.14 1313.47C1603.4 1313.62 1603.69 1313.71 1603.99 1313.71L1635.62 1314.27C1635.87 1314.27 1636.12 1314.21 1636.35 1314.11C1636.58 1314.01 1636.78 1313.85 1636.94 1313.66L1714.65 1221.8Z" stroke="#80AED6" stroke-width="2"/>
<path d="M1867.85 1544.1C1868.05 1543.84 1868.31 1543.63 1868.6 1543.48C1868.89 1543.32 1869.21 1543.23 1869.55 1543.21C1869.88 1543.19 1870.21 1543.24 1870.53 1543.35C1870.84 1543.47 1871.13 1543.65 1871.38 1543.88C1951.5 1619.4 2031.47 1694.64 2111.26 1769.58C2114.09 1772.22 2116.7 1773.42 2119.09 1773.16C2120.15 1773.04 2121.14 1772.53 2121.85 1771.74C2122.56 1770.95 2122.95 1769.92 2122.95 1768.86L2122.84 1362.64C2122.84 1360.18 2121.6 1358.95 2119.14 1358.95L2038.74 1358.73C2038.05 1358.73 2037.39 1359 2036.91 1359.49C2036.42 1359.97 2036.15 1360.63 2036.15 1361.32L2035.98 1574.4C2035.98 1574.78 2035.87 1575.14 2035.66 1575.45C2035.45 1575.76 2035.15 1576.01 2034.81 1576.15C2034.46 1576.3 2034.08 1576.34 2033.72 1576.28C2033.35 1576.21 2033.01 1576.04 2032.73 1575.78C1952.97 1500.55 1872.99 1425.15 1792.79 1349.58C1789.89 1346.87 1787.44 1345.32 1785.46 1344.95C1782.12 1344.37 1780.45 1345.76 1780.45 1349.14L1780.34 1753.76C1780.34 1756.37 1781.64 1757.68 1784.25 1757.68L1863.94 1757.73C1866.03 1757.73 1867.08 1756.67 1867.08 1754.54C1866.89 1685.25 1866.91 1615.8 1867.13 1546.19C1867.13 1545.38 1867.37 1544.69 1867.85 1544.1Z" stroke="#80AED6" stroke-width="2"/>
<path d="M1421.25 1670.67C1381.46 1708.14 1307.56 1670.84 1268.87 1647.25C1266.49 1645.82 1265.4 1646.48 1265.62 1649.24L1272.9 1746.99C1273.08 1749.45 1274.33 1751.08 1276.64 1751.89C1316.43 1766 1355.52 1771.97 1393.92 1769.8C1460.43 1766.05 1515.37 1723.46 1521 1654.8C1525.9 1594.9 1498.07 1560.96 1450.68 1531.87C1426.32 1516.91 1401.45 1502.62 1376.06 1489C1342 1470.7 1339.63 1426.12 1384.27 1421.99C1418.55 1418.85 1456.96 1438.47 1486.83 1456.87C1489.4 1458.45 1490.69 1457.73 1490.69 1454.72L1490.63 1369.09C1490.63 1366.78 1489.55 1365.23 1487.38 1364.46C1427.53 1343.8 1351.59 1331.07 1298.3 1375.98C1276.99 1393.98 1265.11 1416.57 1262.65 1443.76C1258.24 1492.36 1281.6 1532.47 1321.61 1557.93C1342.92 1571.45 1365.64 1585.06 1389.78 1598.76C1411 1610.83 1450.24 1643.34 1421.25 1670.67Z" stroke="#80AED6" stroke-width="2"/>
<path d="M3057.59 1666.81C2979.17 1700.92 2892.65 1666.04 2883.94 1575.01C2870.88 1439.02 3012.18 1383.75 3099.69 1481.22C3102.67 1484.53 3104.37 1483.96 3104.81 1479.52L3113.96 1387.44C3114.09 1386.11 3113.85 1384.77 3113.27 1383.57C3112.69 1382.36 3111.78 1381.34 3110.66 1380.61C2997.24 1306.71 2844.04 1353.44 2800.06 1483.26C2764.57 1588.18 2806.24 1708.52 2911.88 1754.15C2975.14 1781.48 3047.61 1774.04 3107.4 1737.51C3109.54 1736.22 3110.66 1734.28 3110.77 1731.67C3112.49 1700.04 3114.4 1667.22 3116.5 1633.2C3116.51 1632.8 3116.41 1632.41 3116.21 1632.06C3116.01 1631.72 3115.71 1631.44 3115.36 1631.27C3115.01 1631.09 3114.61 1631.02 3114.23 1631.07C3113.84 1631.12 3113.48 1631.29 3113.19 1631.55C3095.92 1646.42 3077.39 1658.18 3057.59 1666.81Z" stroke="#80AED6" stroke-width="2"/>
<path d="M3357.4 1770.9C3383.96 1770.81 3410.24 1765.22 3434.74 1754.44C3459.24 1743.67 3481.48 1727.92 3500.2 1708.11C3518.91 1688.29 3533.72 1664.79 3543.8 1638.95C3553.87 1613.11 3559.01 1585.43 3558.91 1557.5C3558.81 1529.57 3553.48 1501.93 3543.23 1476.16C3532.97 1450.39 3518 1426.99 3499.15 1407.31C3480.3 1387.62 3457.95 1372.03 3433.37 1361.43C3408.8 1350.83 3382.48 1345.42 3355.92 1345.51C3329.36 1345.6 3303.08 1351.19 3278.58 1361.97C3254.08 1372.74 3231.84 1388.49 3213.13 1408.31C3194.41 1428.12 3179.6 1451.62 3169.52 1477.46C3159.45 1503.3 3154.32 1530.98 3154.41 1558.91C3154.51 1586.84 3159.84 1614.48 3170.09 1640.25C3180.35 1666.02 3195.33 1689.42 3214.18 1709.1C3233.02 1728.79 3255.37 1744.38 3279.95 1754.98C3304.52 1765.59 3330.84 1771 3357.4 1770.9Z" stroke="#80AED6" stroke-width="2"/>
<path d="M1686.98 1360.88C1686.98 1360.34 1686.77 1359.82 1686.38 1359.44C1686 1359.06 1685.48 1358.84 1684.94 1358.84H1595.12C1594.58 1358.84 1594.06 1359.06 1593.67 1359.44C1593.29 1359.82 1593.08 1360.34 1593.08 1360.88V1755.64C1593.08 1756.18 1593.29 1756.7 1593.67 1757.08C1594.06 1757.46 1594.58 1757.68 1595.12 1757.68H1684.94C1685.48 1757.68 1686 1757.46 1686.38 1757.08C1686.77 1756.7 1686.98 1756.18 1686.98 1755.64V1360.88Z" stroke="#80AED6" stroke-width="2"/>
<path d="M2214.7 1360.71L2215.36 1756.13C2215.36 1756.46 2215.49 1756.76 2215.72 1756.99C2215.94 1757.22 2216.25 1757.35 2216.57 1757.35L2348.89 1757.13C2403.88 1757.03 2456.59 1736.95 2495.42 1701.3C2534.24 1665.65 2556.01 1617.35 2555.93 1567.02V1548.73C2555.89 1523.8 2550.49 1499.13 2540.03 1476.12C2529.57 1453.11 2514.26 1432.21 2494.97 1414.62C2475.69 1397.03 2452.8 1383.09 2427.62 1373.59C2402.44 1364.1 2375.46 1359.23 2348.23 1359.28L2215.91 1359.5C2215.59 1359.5 2215.28 1359.63 2215.06 1359.86C2214.83 1360.08 2214.7 1360.39 2214.7 1360.71Z" stroke="#80AED6" stroke-width="2"/>
<path d="M2718.67 1360.99C2718.67 1360.4 2718.44 1359.84 2718.02 1359.43C2717.61 1359.02 2717.05 1358.79 2716.47 1358.79H2626.97C2626.38 1358.79 2625.82 1359.02 2625.41 1359.43C2625 1359.84 2624.76 1360.4 2624.76 1360.99V1755.53C2624.76 1756.11 2625 1756.67 2625.41 1757.09C2625.82 1757.5 2626.38 1757.73 2626.97 1757.73H2716.47C2717.05 1757.73 2717.61 1757.5 2718.02 1757.09C2718.44 1756.67 2718.67 1756.11 2718.67 1755.53V1360.99Z" stroke="#80AED6" stroke-width="2"/>
<path d="M3356.5 1680.92C3384.43 1680.92 3411.21 1667.98 3430.96 1644.94C3450.71 1621.91 3461.81 1590.67 3461.81 1558.09C3461.81 1525.52 3450.71 1494.28 3430.96 1471.24C3411.21 1448.21 3384.43 1435.27 3356.5 1435.27C3328.57 1435.27 3301.78 1448.21 3282.03 1471.24C3262.28 1494.28 3251.18 1525.52 3251.18 1558.09C3251.18 1574.22 3253.91 1590.2 3259.2 1605.1C3264.49 1620 3272.25 1633.54 3282.03 1644.94C3291.81 1656.35 3303.42 1665.4 3316.19 1671.57C3328.97 1677.74 3342.67 1680.92 3356.5 1680.92Z" stroke="#80AED6" stroke-width="2"/>
<path d="M2308 1445.8L2308.44 1670.73C2308.44 1671.09 2308.59 1671.44 2308.84 1671.7C2309.1 1671.96 2309.45 1672.1 2309.82 1672.1L2345.25 1672.05C2375.93 1671.99 2405.33 1660.72 2426.99 1640.71C2448.65 1620.71 2460.8 1593.61 2460.76 1565.37V1550.71C2460.74 1536.72 2457.73 1522.87 2451.89 1509.95C2446.05 1497.03 2437.5 1485.3 2426.74 1475.42C2415.97 1465.54 2403.19 1457.72 2389.13 1452.39C2375.08 1447.06 2360.02 1444.33 2344.81 1444.36L2309.38 1444.42C2309.01 1444.42 2308.66 1444.56 2308.4 1444.82C2308.15 1445.08 2308 1445.43 2308 1445.8Z" stroke="#80AED6" stroke-width="2"/>
<path d="M1154.3 751.22C1154.6 1043.41 1154.54 1351.73 1154.14 1676.18C1154.1 1704.87 1156.93 1726.89 1162.62 1742.25C1177.23 1781.87 1207.43 1808.7 1246.11 1829.09C1253.94 1833.24 1253.5 1834.53 1244.79 1832.95C1237.52 1831.66 1230.59 1829.33 1224.02 1825.95C1027.17 1725.11 796.869 1606.6 533.12 1470.43C470.186 1437.97 377.769 1398.85 356.772 1323.96C353.025 1310.59 351.151 1294.5 351.151 1275.69C351.298 1104.8 351.317 933.685 351.207 762.351C351.207 761.358 350.812 760.404 350.109 759.702C349.406 758.999 348.453 758.604 347.459 758.604L101.895 758.329C101.541 758.325 101.191 758.246 100.871 758.096C100.551 757.946 100.267 757.73 100.041 757.462C99.8155 757.194 99.6522 756.881 99.5631 756.545C99.474 756.21 99.4613 755.859 99.5258 755.519C99.783 753.939 100.408 752.561 101.4 751.386C125.482 722.567 154.91 695.07 182.189 667.133C367.941 476.844 549.726 290.412 727.543 107.837C734.156 101.041 741.026 94.2817 748.153 87.5592C749.505 86.2719 751.308 85.5677 753.174 85.5986C755.041 85.6296 756.82 86.3931 758.128 87.7245C966.953 298.439 1175.23 508.253 1382.95 717.167C1390.96 725.212 1398.51 733.9 1405.6 743.231C1405.86 743.558 1406.02 743.952 1406.07 744.369C1406.11 744.785 1406.04 745.206 1405.86 745.582C1405.67 745.958 1405.38 746.273 1405.02 746.491C1404.67 746.709 1404.25 746.82 1403.83 746.812L1158.66 746.867C1155.75 746.867 1154.3 748.318 1154.3 751.22ZM964.013 803.789C964.013 791.761 959.235 780.226 950.729 771.722C942.224 763.217 930.688 758.439 918.659 758.439H819.133C807.104 758.439 795.568 763.217 787.063 771.722C778.557 780.226 773.779 791.761 773.779 803.789V878.398C773.779 890.426 778.557 901.961 787.063 910.466C795.568 918.97 807.104 923.748 819.133 923.748H918.659C930.688 923.748 942.224 918.97 950.729 910.466C959.235 901.961 964.013 890.426 964.013 878.398V803.789ZM731.054 804.942C731.033 798.813 729.804 792.748 727.439 787.093C725.073 781.439 721.617 776.306 717.268 771.987C712.918 767.668 707.761 764.249 702.09 761.923C696.418 759.597 690.344 758.411 684.215 758.432L585.571 758.777C579.441 758.798 573.376 760.027 567.721 762.392C562.066 764.757 556.933 768.213 552.613 772.562C548.294 776.911 544.874 782.068 542.548 787.739C540.222 793.409 539.036 799.483 539.057 805.612L539.307 877.246C539.329 883.375 540.557 889.44 542.923 895.094C545.288 900.748 548.744 905.881 553.094 910.2C557.443 914.519 562.601 917.939 568.272 920.264C573.943 922.59 580.017 923.776 586.147 923.755L684.791 923.41C690.92 923.389 696.986 922.161 702.641 919.795C708.295 917.43 713.429 913.974 717.748 909.625C722.068 905.276 725.488 900.119 727.814 894.449C730.14 888.778 731.326 882.705 731.304 876.576L731.054 804.942ZM731.467 1008.83C731.489 1002.57 730.276 996.357 727.898 990.559C725.52 984.761 722.023 979.488 717.607 975.042C713.191 970.595 707.942 967.062 702.16 964.643C696.379 962.225 690.177 960.969 683.91 960.947L586.92 960.609C580.652 960.587 574.442 961.8 568.644 964.177C562.845 966.555 557.572 970.052 553.125 974.468C548.678 978.883 545.144 984.131 542.726 989.913C540.307 995.694 539.051 1001.89 539.029 1008.16L538.784 1078.36C538.762 1084.63 539.975 1090.84 542.353 1096.64C544.731 1102.43 548.228 1107.71 552.644 1112.15C557.061 1116.6 562.309 1120.13 568.091 1122.55C573.873 1124.97 580.074 1126.23 586.341 1126.25L683.332 1126.59C689.599 1126.61 695.809 1125.4 701.608 1123.02C707.406 1120.64 712.679 1117.14 717.126 1112.73C721.574 1108.31 725.107 1103.06 727.526 1097.28C729.944 1091.5 731.2 1085.3 731.222 1079.03L731.467 1008.83ZM963.991 1005.41C963.97 999.499 962.785 993.649 960.504 988.195C958.222 982.741 954.888 977.789 950.693 973.624C946.497 969.458 941.522 966.159 936.052 963.916C930.581 961.672 924.723 960.528 918.81 960.549L819.175 960.897C813.262 960.917 807.412 962.102 801.957 964.383C796.502 966.665 791.551 969.998 787.384 974.193C783.218 978.388 779.919 983.363 777.675 988.833C775.432 994.303 774.288 1000.16 774.308 1006.07L774.573 1081.78C774.593 1087.7 775.778 1093.55 778.06 1099C780.342 1104.45 783.676 1109.41 787.871 1113.57C792.066 1117.74 797.041 1121.04 802.512 1123.28C807.982 1125.52 813.841 1126.67 819.754 1126.65L919.389 1126.3C925.301 1126.28 931.152 1125.09 936.607 1122.81C942.061 1120.53 947.013 1117.2 951.179 1113C955.346 1108.81 958.645 1103.83 960.888 1098.36C963.132 1092.89 964.276 1087.03 964.255 1081.12L963.991 1005.41Z" fill="#00ADEF"/>
<path d="M1894.3 984.749L1864.71 1051.31C1864.55 1051.65 1864.3 1051.94 1863.99 1052.15C1863.68 1052.35 1863.32 1052.46 1862.94 1052.47L1821.89 1052.53C1821.56 1052.52 1821.24 1052.43 1820.95 1052.27C1820.66 1052.11 1820.42 1051.88 1820.25 1051.6C1820.07 1051.32 1819.97 1051 1819.95 1050.67C1819.93 1050.34 1819.99 1050.01 1820.12 1049.72L1945.28 777.671C1945.43 777.317 1945.69 777.016 1946.01 776.805C1946.33 776.593 1946.71 776.48 1947.1 776.48C1947.48 776.48 1947.86 776.593 1948.18 776.805C1948.51 777.016 1948.76 777.317 1948.91 777.671L2073.62 1049.33C2073.76 1049.63 2073.82 1049.97 2073.8 1050.3C2073.78 1050.63 2073.67 1050.95 2073.49 1051.23C2073.31 1051.51 2073.06 1051.74 2072.76 1051.9C2072.47 1052.06 2072.14 1052.14 2071.81 1052.14L2030.92 1052.25C2030.53 1052.25 2030.15 1052.13 2029.82 1051.92C2029.5 1051.7 2029.25 1051.4 2029.1 1051.04L2000.16 984.804C2000.01 984.446 1999.76 984.14 1999.44 983.925C1999.11 983.709 1998.73 983.593 1998.35 983.591H1896.06C1895.69 983.599 1895.33 983.712 1895.02 983.916C1894.7 984.121 1894.46 984.41 1894.3 984.749ZM1945.99 861.538C1937.73 890.302 1923.56 916.972 1912.16 944.799C1912.05 945.064 1912.01 945.351 1912.04 945.635C1912.06 945.919 1912.16 946.192 1912.32 946.431C1912.48 946.669 1912.69 946.866 1912.94 947.004C1913.19 947.142 1913.47 947.218 1913.75 947.223H1981.21C1983.74 947.223 1984.46 946.103 1983.36 943.862C1970.17 917.009 1958.61 889.531 1948.69 861.428C1947.7 858.636 1946.8 858.673 1945.99 861.538Z" fill="#363435"/>
<path d="M2444.73 984.8L2415.46 1050.7C2415.3 1051.07 2415.04 1051.37 2414.71 1051.59C2414.37 1051.8 2413.99 1051.92 2413.59 1051.92L2372.81 1051.86C2372.47 1051.86 2372.13 1051.78 2371.83 1051.62C2371.53 1051.46 2371.28 1051.22 2371.09 1050.94C2370.91 1050.65 2370.79 1050.33 2370.77 1049.99C2370.74 1049.65 2370.8 1049.31 2370.93 1049L2495.7 777.723C2495.86 777.356 2496.12 777.044 2496.45 776.825C2496.79 776.605 2497.18 776.488 2497.57 776.488C2497.97 776.488 2498.36 776.605 2498.7 776.825C2499.03 777.044 2499.29 777.356 2499.45 777.723L2624.16 1049.49C2624.29 1049.8 2624.35 1050.13 2624.33 1050.47C2624.3 1050.8 2624.2 1051.13 2624.02 1051.41C2623.84 1051.69 2623.59 1051.93 2623.3 1052.09C2623 1052.26 2622.68 1052.35 2622.34 1052.36L2581.5 1052.52C2581.11 1052.52 2580.72 1052.41 2580.39 1052.19C2580.05 1051.98 2579.79 1051.67 2579.63 1051.31L2550.75 984.8C2550.59 984.438 2550.33 984.13 2550 983.915C2549.67 983.7 2549.28 983.586 2548.88 983.588H2446.6C2446.2 983.586 2445.81 983.7 2445.48 983.915C2445.15 984.13 2444.89 984.438 2444.73 984.8ZM2496.36 861.865C2488.76 889.692 2474.81 917.464 2462.08 944.575C2461.95 944.853 2461.9 945.159 2461.92 945.465C2461.94 945.771 2462.03 946.066 2462.2 946.325C2462.36 946.583 2462.59 946.796 2462.86 946.943C2463.13 947.089 2463.43 947.166 2463.74 947.165L2532.95 947.275C2533.21 947.272 2533.47 947.204 2533.69 947.078C2533.92 946.951 2534.11 946.77 2534.25 946.55C2534.38 946.33 2534.46 946.08 2534.48 945.821C2534.49 945.563 2534.44 945.305 2534.33 945.071C2520.59 916.785 2508.96 889.013 2499.45 861.755C2498.31 858.522 2497.28 858.559 2496.36 861.865Z" fill="#363435"/>
<path d="M1573.13 900.054C1558.91 1008.77 1666.21 1054.4 1744.79 989.321C1748.54 986.235 1750.41 987.117 1750.41 991.966L1750.36 1027.07C1750.36 1033.2 1747.66 1037.72 1742.26 1040.62C1656.62 1087.02 1544.42 1046.79 1528.82 944.302C1508.93 813.211 1643.56 733.036 1751.35 804.395C1751.82 804.717 1752.2 805.15 1752.45 805.652C1752.7 806.154 1752.81 806.708 1752.78 807.26L1750.63 847.816C1750.62 847.95 1750.57 848.078 1750.49 848.187C1750.41 848.297 1750.31 848.383 1750.18 848.439C1750.06 848.495 1749.93 848.518 1749.79 848.505C1749.66 848.492 1749.53 848.445 1749.42 848.367C1712.39 819.309 1673.85 811.209 1633.8 824.067C1601.18 834.591 1577.54 866.055 1573.13 900.054Z" fill="#363435"/>
<path d="M2262.26 835.805C2247.99 812.386 2206.55 806.821 2192.71 833.766C2179.05 860.216 2203.79 879.226 2224.29 889.586C2270.75 913.17 2318.25 931.133 2305.96 996.21C2295.66 1050.93 2239.01 1068.34 2191.5 1056.22C2162.7 1048.87 2144.42 1030.3 2136.67 1000.51C2136.56 1000.05 2136.61 999.577 2136.81 999.156C2137.01 998.735 2137.35 998.395 2137.77 998.194L2169.35 983.206C2170.01 982.912 2170.45 983.095 2170.67 983.757C2176.37 1001.21 2187 1012.19 2202.58 1016.71C2259.84 1033.4 2289.76 970.532 2233.77 942.815C2186.82 919.562 2130.88 896.473 2146.31 831.562C2161.85 765.989 2267.66 759.432 2297.7 817.18C2299.42 820.523 2298.61 823.095 2295.27 824.895L2270.69 838.064C2267.17 839.974 2264.36 839.221 2262.26 835.805Z" fill="#363435"/>
<path d="M3410.17 918.955C3410.17 956.397 3395.3 992.305 3368.82 1018.78C3342.34 1045.26 3306.43 1060.13 3268.98 1060.13C3231.54 1060.13 3195.63 1045.26 3169.15 1018.78C3142.67 992.305 3127.79 956.397 3127.79 918.955C3127.79 881.514 3142.67 845.606 3169.15 819.13C3195.63 792.655 3231.54 777.781 3268.98 777.781C3306.43 777.781 3342.34 792.655 3368.82 819.13C3395.3 845.606 3410.17 881.514 3410.17 918.955ZM3268.46 1019.13C3281.13 1019.2 3293.69 1016.67 3305.42 1011.69C3317.16 1006.71 3327.83 999.381 3336.84 990.116C3345.85 980.85 3353.02 969.832 3357.93 957.69C3362.84 945.548 3365.41 932.52 3365.48 919.35C3365.55 906.181 3363.12 893.127 3358.33 880.934C3353.55 868.741 3346.5 857.648 3337.59 848.289C3328.67 838.93 3318.08 831.487 3306.39 826.386C3294.71 821.285 3282.18 818.625 3269.51 818.559C3256.84 818.492 3244.28 821.021 3232.54 825.999C3220.81 830.978 3210.13 838.309 3201.12 847.575C3192.11 856.84 3184.95 867.858 3180.04 880C3175.12 892.142 3172.56 905.17 3172.49 918.34C3172.42 931.51 3174.85 944.564 3179.63 956.756C3184.42 968.949 3191.47 980.042 3200.38 989.401C3209.29 998.761 3219.89 1006.2 3231.57 1011.3C3243.25 1016.41 3255.79 1019.07 3268.46 1019.13Z" fill="#363435"/>
<path d="M2813.73 785.989C2813.73 785.565 2813.9 785.158 2814.2 784.859C2814.5 784.559 2814.91 784.391 2815.33 784.391L2915.85 784.611C2931.95 784.64 2947.89 787.84 2962.75 794.028C2977.62 800.216 2991.12 809.271 3002.49 820.677C3013.85 832.082 3022.86 845.614 3029 860.5C3035.13 875.386 3038.27 891.335 3038.24 907.436V930.248C3038.22 946.349 3035.01 962.286 3028.83 977.15C3022.64 992.014 3013.58 1005.51 3002.17 1016.88C2990.77 1028.24 2977.23 1037.25 2962.35 1043.38C2947.46 1049.52 2931.51 1052.66 2915.41 1052.63L2814.89 1052.41C2814.47 1052.41 2814.06 1052.24 2813.76 1051.94C2813.46 1051.64 2813.29 1051.24 2813.29 1050.81L2813.73 785.989ZM2857.27 825.828L2856.61 1010.53C2856.61 1011.16 2856.86 1011.76 2857.3 1012.21C2857.74 1012.65 2858.35 1012.9 2858.98 1012.9L2911.49 1013.07C2933.04 1013.14 2953.73 1004.54 2969.01 989.15C2984.3 973.763 2992.93 952.853 2993 931.02L2993.11 906.224C2993.15 895.412 2991.08 884.7 2987.03 874.697C2982.99 864.695 2977.03 855.6 2969.51 847.929C2962 840.259 2953.06 834.165 2943.22 829.995C2933.38 825.824 2922.82 823.66 2912.16 823.624L2859.64 823.459C2859.33 823.459 2859.02 823.52 2858.73 823.639C2858.44 823.758 2858.18 823.933 2857.96 824.153C2857.74 824.373 2857.57 824.634 2857.45 824.921C2857.33 825.209 2857.27 825.517 2857.27 825.828Z" fill="#363435"/>
<path d="M1208.92 1175.57C1208.92 1174.68 1209.27 1173.82 1209.9 1173.19C1210.53 1172.56 1211.39 1172.21 1212.28 1172.21H3613.85C3614.26 1172.21 3614.65 1172.38 3614.94 1172.68C3615.23 1172.97 3615.4 1173.38 3615.4 1173.81V1818.29C3615.4 1820.13 3614.48 1821.05 3612.64 1821.05C2859.12 1820.97 2104.76 1820.97 1349.55 1821.05C1267.72 1821.05 1208.92 1763.08 1208.86 1680.42C1208.86 1513.68 1208.88 1345.4 1208.92 1175.57ZM1714.65 1221.8C1714.86 1221.55 1714.99 1221.24 1715.04 1220.92C1715.08 1220.6 1715.03 1220.27 1714.89 1219.97C1714.75 1219.67 1714.53 1219.42 1714.25 1219.25C1713.97 1219.08 1713.65 1218.99 1713.32 1218.99L1657.56 1219.1C1657.26 1219.1 1656.96 1219.17 1656.7 1219.31C1656.44 1219.46 1656.22 1219.67 1656.07 1219.93L1602.56 1311.12C1602.4 1311.38 1602.32 1311.67 1602.31 1311.97C1602.31 1312.27 1602.38 1312.57 1602.52 1312.83C1602.67 1313.09 1602.88 1313.31 1603.14 1313.47C1603.4 1313.62 1603.69 1313.71 1603.99 1313.71L1635.62 1314.26C1635.87 1314.27 1636.12 1314.21 1636.35 1314.11C1636.58 1314 1636.78 1313.85 1636.94 1313.66L1714.65 1221.8ZM1867.85 1544.1C1868.05 1543.84 1868.31 1543.63 1868.6 1543.48C1868.89 1543.32 1869.21 1543.23 1869.55 1543.21C1869.88 1543.19 1870.21 1543.24 1870.53 1543.36C1870.84 1543.47 1871.13 1543.65 1871.38 1543.88C1951.5 1619.41 2031.47 1694.64 2111.26 1769.58C2114.09 1772.22 2116.7 1773.42 2119.09 1773.16C2120.15 1773.04 2121.14 1772.53 2121.85 1771.74C2122.56 1770.95 2122.95 1769.92 2122.95 1768.86L2122.84 1362.64C2122.84 1360.18 2121.61 1358.95 2119.14 1358.95L2038.74 1358.73C2038.05 1358.73 2037.39 1359 2036.91 1359.49C2036.42 1359.98 2036.15 1360.63 2036.15 1361.32L2035.99 1574.4C2035.98 1574.78 2035.87 1575.14 2035.66 1575.45C2035.45 1575.76 2035.15 1576.01 2034.81 1576.15C2034.46 1576.3 2034.08 1576.34 2033.72 1576.28C2033.35 1576.21 2033.01 1576.04 2032.73 1575.78C1952.97 1500.55 1872.99 1425.15 1792.79 1349.58C1789.89 1346.87 1787.45 1345.32 1785.46 1344.96C1782.12 1344.37 1780.45 1345.76 1780.45 1349.14L1780.34 1753.76C1780.34 1756.37 1781.64 1757.68 1784.25 1757.68L1863.94 1757.73C1866.03 1757.73 1867.08 1756.67 1867.08 1754.54C1866.89 1685.25 1866.91 1615.81 1867.13 1546.19C1867.13 1545.38 1867.37 1544.69 1867.85 1544.1ZM1421.25 1670.67C1381.46 1708.14 1307.56 1670.83 1268.87 1647.25C1266.49 1645.82 1265.4 1646.48 1265.62 1649.23L1272.9 1746.99C1273.08 1749.45 1274.33 1751.08 1276.64 1751.89C1316.43 1766 1355.52 1771.97 1393.92 1769.8C1460.43 1766.05 1515.38 1723.46 1521 1654.8C1525.9 1594.9 1498.07 1560.96 1450.68 1531.86C1426.32 1516.91 1401.45 1502.62 1376.06 1488.99C1342 1470.7 1339.63 1426.12 1384.27 1421.99C1418.55 1418.85 1456.96 1438.47 1486.83 1456.87C1489.4 1458.45 1490.69 1457.73 1490.69 1454.72L1490.63 1369.09C1490.63 1366.78 1489.55 1365.23 1487.38 1364.46C1427.53 1343.8 1351.59 1331.07 1298.3 1375.98C1276.99 1393.98 1265.11 1416.57 1262.65 1443.75C1258.24 1492.36 1281.6 1532.47 1321.61 1557.93C1342.92 1571.45 1365.65 1585.06 1389.78 1598.76C1411 1610.83 1450.24 1643.34 1421.25 1670.67ZM3057.59 1666.81C2979.17 1700.92 2892.65 1666.04 2883.94 1575.01C2870.88 1439.02 3012.18 1383.75 3099.69 1481.22C3102.67 1484.53 3104.37 1483.96 3104.82 1479.52L3113.96 1387.44C3114.09 1386.11 3113.85 1384.77 3113.27 1383.57C3112.69 1382.36 3111.78 1381.34 3110.66 1380.61C2997.24 1306.71 2844.04 1353.44 2800.07 1483.26C2764.58 1588.18 2806.24 1708.53 2911.88 1754.15C2975.15 1781.48 3047.61 1774.04 3107.41 1737.51C3109.54 1736.22 3110.66 1734.28 3110.77 1731.67C3112.49 1700.04 3114.4 1667.22 3116.5 1633.2C3116.51 1632.8 3116.41 1632.41 3116.21 1632.06C3116.01 1631.72 3115.71 1631.44 3115.36 1631.27C3115.01 1631.09 3114.62 1631.02 3114.23 1631.07C3113.84 1631.12 3113.48 1631.29 3113.19 1631.55C3095.92 1646.42 3077.39 1658.18 3057.59 1666.81ZM3357.4 1770.9C3383.96 1770.81 3410.24 1765.21 3434.74 1754.44C3459.24 1743.67 3481.49 1727.92 3500.2 1708.1C3518.91 1688.29 3533.72 1664.79 3543.8 1638.95C3553.87 1613.11 3559.01 1585.43 3558.91 1557.5C3558.81 1529.57 3553.48 1501.93 3543.23 1476.16C3532.98 1450.39 3518 1426.99 3499.15 1407.31C3480.3 1387.62 3457.95 1372.03 3433.37 1361.43C3408.8 1350.82 3382.48 1345.41 3355.92 1345.51C3329.36 1345.6 3303.08 1351.19 3278.58 1361.97C3254.08 1372.74 3231.84 1388.49 3213.13 1408.3C3194.41 1428.12 3179.6 1451.62 3169.53 1477.46C3159.45 1503.3 3154.32 1530.98 3154.41 1558.91C3154.51 1586.84 3159.84 1614.48 3170.09 1640.25C3180.35 1666.02 3195.33 1689.42 3214.18 1709.1C3233.03 1728.79 3255.38 1744.38 3279.95 1754.98C3304.53 1765.58 3330.84 1770.99 3357.4 1770.9ZM1686.98 1360.88C1686.98 1360.34 1686.77 1359.82 1686.39 1359.44C1686 1359.06 1685.48 1358.84 1684.94 1358.84H1595.12C1594.58 1358.84 1594.06 1359.06 1593.68 1359.44C1593.29 1359.82 1593.08 1360.34 1593.08 1360.88V1755.64C1593.08 1756.18 1593.29 1756.7 1593.68 1757.08C1594.06 1757.46 1594.58 1757.68 1595.12 1757.68H1684.94C1685.48 1757.68 1686 1757.46 1686.39 1757.08C1686.77 1756.7 1686.98 1756.18 1686.98 1755.64V1360.88ZM2214.7 1360.71L2215.36 1756.13C2215.36 1756.46 2215.49 1756.76 2215.72 1756.99C2215.95 1757.22 2216.25 1757.35 2216.58 1757.35L2348.89 1757.13C2403.88 1757.03 2456.59 1736.95 2495.42 1701.3C2534.25 1665.65 2556.01 1617.35 2555.93 1567.02V1548.73C2555.9 1523.8 2550.49 1499.13 2540.03 1476.12C2529.57 1453.11 2514.26 1432.21 2494.97 1414.62C2475.69 1397.03 2452.8 1383.09 2427.62 1373.59C2402.44 1364.1 2375.47 1359.23 2348.23 1359.28L2215.91 1359.5C2215.59 1359.5 2215.28 1359.63 2215.06 1359.86C2214.83 1360.08 2214.7 1360.39 2214.7 1360.71ZM2718.67 1360.99C2718.67 1360.41 2718.44 1359.84 2718.02 1359.43C2717.61 1359.02 2717.05 1358.79 2716.47 1358.79H2626.97C2626.38 1358.79 2625.82 1359.02 2625.41 1359.43C2625 1359.84 2624.76 1360.41 2624.76 1360.99V1755.53C2624.76 1756.11 2625 1756.67 2625.41 1757.09C2625.82 1757.5 2626.38 1757.73 2626.97 1757.73H2716.47C2717.05 1757.73 2717.61 1757.5 2718.02 1757.09C2718.44 1756.67 2718.67 1756.11 2718.67 1755.53V1360.99Z" fill="#005DAC"/>
<path d="M1714.65 1221.8L1636.94 1313.66C1636.78 1313.85 1636.58 1314 1636.35 1314.11C1636.12 1314.21 1635.87 1314.26 1635.62 1314.26L1603.99 1313.71C1603.69 1313.71 1603.4 1313.62 1603.14 1313.47C1602.88 1313.31 1602.67 1313.09 1602.52 1312.83C1602.38 1312.57 1602.31 1312.27 1602.31 1311.97C1602.32 1311.67 1602.4 1311.38 1602.56 1311.12L1656.07 1219.93C1656.22 1219.67 1656.44 1219.46 1656.7 1219.31C1656.96 1219.17 1657.26 1219.09 1657.55 1219.1L1713.32 1218.99C1713.65 1218.99 1713.97 1219.08 1714.25 1219.25C1714.53 1219.42 1714.75 1219.67 1714.89 1219.97C1715.03 1220.27 1715.08 1220.59 1715.04 1220.92C1714.99 1221.24 1714.86 1221.55 1714.65 1221.8Z" fill="white"/>
<path d="M1867.85 1544.1C1867.37 1544.69 1867.13 1545.38 1867.13 1546.19C1866.91 1615.8 1866.89 1685.25 1867.08 1754.54C1867.08 1756.67 1866.03 1757.73 1863.94 1757.73L1784.25 1757.68C1781.64 1757.68 1780.34 1756.37 1780.34 1753.76L1780.45 1349.14C1780.45 1345.76 1782.12 1344.37 1785.46 1344.95C1787.44 1345.32 1789.89 1346.87 1792.79 1349.58C1872.99 1425.15 1952.97 1500.55 2032.73 1575.78C2033.01 1576.04 2033.35 1576.21 2033.72 1576.28C2034.08 1576.34 2034.46 1576.3 2034.81 1576.15C2035.15 1576.01 2035.45 1575.76 2035.66 1575.45C2035.87 1575.14 2035.98 1574.78 2035.98 1574.4L2036.15 1361.32C2036.15 1360.63 2036.42 1359.97 2036.91 1359.49C2037.39 1359 2038.05 1358.73 2038.74 1358.73L2119.14 1358.95C2121.6 1358.95 2122.84 1360.18 2122.84 1362.64L2122.95 1768.86C2122.95 1769.92 2122.56 1770.95 2121.85 1771.74C2121.14 1772.53 2120.15 1773.04 2119.09 1773.16C2116.7 1773.42 2114.09 1772.22 2111.26 1769.58C2031.47 1694.64 1951.5 1619.4 1871.38 1543.88C1871.13 1543.65 1870.84 1543.47 1870.53 1543.35C1870.21 1543.24 1869.88 1543.19 1869.55 1543.21C1869.21 1543.23 1868.89 1543.32 1868.6 1543.48C1868.31 1543.63 1868.05 1543.84 1867.85 1544.1Z" fill="white"/>
<path d="M1421.25 1670.67C1450.24 1643.34 1411 1610.83 1389.78 1598.76C1365.64 1585.06 1342.92 1571.45 1321.61 1557.93C1281.6 1532.47 1258.24 1492.36 1262.65 1443.76C1265.11 1416.57 1276.99 1393.98 1298.3 1375.98C1351.59 1331.07 1427.53 1343.8 1487.38 1364.46C1489.55 1365.23 1490.63 1366.78 1490.63 1369.09L1490.69 1454.72C1490.69 1457.73 1489.4 1458.45 1486.83 1456.87C1456.96 1438.47 1418.55 1418.85 1384.27 1421.99C1339.63 1426.12 1342 1470.7 1376.06 1489C1401.45 1502.62 1426.32 1516.91 1450.68 1531.87C1498.07 1560.96 1525.9 1594.9 1521 1654.8C1515.37 1723.46 1460.43 1766.05 1393.92 1769.8C1355.52 1771.97 1316.43 1766 1276.64 1751.89C1274.33 1751.08 1273.08 1749.45 1272.9 1746.99L1265.62 1649.24C1265.4 1646.48 1266.49 1645.82 1268.87 1647.25C1307.56 1670.84 1381.46 1708.14 1421.25 1670.67Z" fill="white"/>
<path d="M2883.94 1575.01C2892.65 1666.04 2979.17 1700.92 3057.59 1666.81C3077.39 1658.18 3095.92 1646.42 3113.19 1631.55C3113.48 1631.29 3113.84 1631.12 3114.23 1631.07C3114.62 1631.02 3115.01 1631.09 3115.36 1631.27C3115.71 1631.44 3116.01 1631.72 3116.21 1632.06C3116.41 1632.41 3116.51 1632.8 3116.5 1633.2C3114.4 1667.22 3112.49 1700.04 3110.77 1731.67C3110.66 1734.28 3109.54 1736.22 3107.41 1737.51C3047.61 1774.04 2975.15 1781.48 2911.88 1754.15C2806.24 1708.52 2764.58 1588.18 2800.07 1483.26C2844.04 1353.44 2997.24 1306.71 3110.66 1380.61C3111.78 1381.34 3112.69 1382.36 3113.27 1383.57C3113.85 1384.77 3114.09 1386.11 3113.96 1387.44L3104.82 1479.52C3104.37 1483.96 3102.67 1484.53 3099.69 1481.22C3012.18 1383.75 2870.88 1439.02 2883.94 1575.01Z" fill="white"/>
<path d="M3357.4 1770.9C3330.84 1771 3304.52 1765.59 3279.95 1754.98C3255.37 1744.38 3233.02 1728.79 3214.18 1709.1C3195.33 1689.42 3180.35 1666.02 3170.09 1640.25C3159.84 1614.48 3154.51 1586.84 3154.41 1558.91C3154.32 1530.98 3159.45 1503.3 3169.52 1477.46C3179.6 1451.62 3194.41 1428.12 3213.13 1408.31C3231.84 1388.49 3254.08 1372.74 3278.58 1361.97C3303.08 1351.19 3329.36 1345.6 3355.92 1345.51C3382.48 1345.42 3408.8 1350.83 3433.37 1361.43C3457.95 1372.03 3480.3 1387.62 3499.15 1407.31C3518 1426.99 3532.97 1450.39 3543.23 1476.16C3553.48 1501.93 3558.81 1529.57 3558.91 1557.5C3559.01 1585.43 3553.87 1613.11 3543.8 1638.95C3533.72 1664.79 3518.91 1688.29 3500.2 1708.11C3481.48 1727.92 3459.24 1743.67 3434.74 1754.44C3410.24 1765.22 3383.96 1770.81 3357.4 1770.9ZM3356.5 1680.92C3384.43 1680.92 3411.21 1667.98 3430.96 1644.95C3450.71 1621.91 3461.81 1590.67 3461.81 1558.1C3461.81 1525.52 3450.71 1494.28 3430.96 1471.25C3411.21 1448.21 3384.43 1435.27 3356.5 1435.27C3328.56 1435.27 3301.78 1448.21 3282.03 1471.25C3262.28 1494.28 3251.18 1525.52 3251.18 1558.1C3251.18 1574.23 3253.91 1590.2 3259.2 1605.1C3264.49 1620 3272.25 1633.54 3282.03 1644.95C3291.81 1656.35 3303.42 1665.4 3316.19 1671.57C3328.97 1677.74 3342.67 1680.92 3356.5 1680.92Z" fill="white"/>
<path d="M1684.94 1358.84H1595.12C1593.99 1358.84 1593.08 1359.75 1593.08 1360.88V1755.64C1593.08 1756.76 1593.99 1757.68 1595.12 1757.68H1684.94C1686.07 1757.68 1686.98 1756.76 1686.98 1755.64V1360.88C1686.98 1359.75 1686.07 1358.84 1684.94 1358.84Z" fill="white"/>
<path d="M2214.7 1360.71C2214.7 1360.39 2214.83 1360.08 2215.06 1359.86C2215.28 1359.63 2215.59 1359.5 2215.91 1359.5L2348.23 1359.28C2375.47 1359.23 2402.44 1364.1 2427.62 1373.59C2452.8 1383.09 2475.69 1397.03 2494.97 1414.62C2514.26 1432.21 2529.57 1453.11 2540.03 1476.12C2550.49 1499.13 2555.9 1523.8 2555.93 1548.73V1567.02C2556.01 1617.35 2534.25 1665.65 2495.42 1701.3C2456.59 1736.95 2403.88 1757.03 2348.89 1757.13L2216.58 1757.35C2216.25 1757.35 2215.95 1757.22 2215.72 1756.99C2215.49 1756.76 2215.36 1756.46 2215.36 1756.13L2214.7 1360.71ZM2308 1445.79L2308.44 1670.72C2308.44 1671.09 2308.59 1671.44 2308.85 1671.7C2309.1 1671.96 2309.45 1672.1 2309.82 1672.1L2345.25 1672.05C2375.93 1671.98 2405.34 1660.71 2427 1640.71C2448.66 1620.7 2460.8 1593.6 2460.76 1565.37V1550.71C2460.74 1536.72 2457.73 1522.86 2451.89 1509.95C2446.05 1497.03 2437.5 1485.29 2426.74 1475.42C2415.97 1465.54 2403.19 1457.71 2389.13 1452.39C2375.08 1447.06 2360.02 1444.33 2344.81 1444.36L2309.38 1444.42C2309.01 1444.42 2308.66 1444.56 2308.4 1444.82C2308.15 1445.08 2308 1445.43 2308 1445.79Z" fill="white"/>
<path d="M2716.47 1358.79H2626.97C2625.75 1358.79 2624.76 1359.77 2624.76 1360.99V1755.53C2624.76 1756.74 2625.75 1757.73 2626.97 1757.73H2716.47C2717.68 1757.73 2718.67 1756.74 2718.67 1755.53V1360.99C2718.67 1359.77 2717.68 1358.79 2716.47 1358.79Z" fill="white"/>
<path d="M3251.18 1558.09C3251.18 1625.93 3298.33 1680.92 3356.5 1680.92C3414.66 1680.92 3461.81 1625.93 3461.81 1558.09C3461.81 1490.26 3414.66 1435.27 3356.5 1435.27C3298.33 1435.27 3251.18 1490.26 3251.18 1558.09Z" fill="#005DAC"/>
<path d="M2308 1445.79C2308 1445.43 2308.15 1445.08 2308.4 1444.82C2308.66 1444.56 2309.01 1444.41 2309.38 1444.41L2344.81 1444.36C2360.02 1444.33 2375.08 1447.06 2389.13 1452.38C2403.19 1457.71 2415.97 1465.54 2426.74 1475.42C2437.5 1485.29 2446.05 1497.02 2451.89 1509.94C2457.73 1522.86 2460.74 1536.72 2460.76 1550.71V1565.37C2460.8 1593.6 2448.66 1620.7 2427 1640.71C2405.34 1660.71 2375.93 1671.98 2345.25 1672.05L2309.82 1672.1C2309.45 1672.1 2309.1 1671.96 2308.85 1671.7C2308.59 1671.44 2308.44 1671.09 2308.44 1670.72L2308 1445.79Z" fill="#005DAC"/>
</svg>
