<svg width="3808" height="860" viewBox="0 0 3808 860" fill="none" xmlns="http://www.w3.org/2000/svg">
<g clip-path="url(#clip0_3721_11606)">
<path d="M380.35 104.204L659.817 265.638C660.353 265.91 660.789 266.345 661.061 266.881L750.965 215.014C746.766 207.66 740.672 201.567 733.319 197.368L402.456 6.45199C395.223 2.28634 387.024 0.09375 378.677 0.09375C370.331 0.09375 362.131 2.28634 354.899 6.45199L284.935 46.7621C284.714 46.8723 284.528 47.0421 284.398 47.2523C284.267 47.4625 284.198 47.7049 284.198 47.9521C284.198 48.1994 284.267 48.4417 284.398 48.652C284.528 48.8622 284.714 49.0319 284.935 49.1421L379.942 104.011M380.35 755.577C379.776 755.748 379.165 755.748 378.591 755.577V859.848C386.964 859.866 395.188 857.645 402.413 853.415L733.576 662.242C740.804 658.069 746.804 652.064 750.971 644.833C755.138 637.601 757.325 629.399 757.312 621.053V540.24C757.307 540.002 757.242 539.769 757.124 539.563C757.006 539.356 756.837 539.183 756.634 539.059C756.431 538.935 756.2 538.865 755.963 538.854C755.725 538.843 755.488 538.892 755.275 538.996L380.35 755.577ZM377.048 755.599L160.811 630.938C160.609 630.811 160.376 630.74 160.138 630.734C159.9 630.728 159.664 630.786 159.456 630.902C159.247 631.018 159.074 631.188 158.954 631.395C158.834 631.601 158.772 631.835 158.774 632.074V739.603C158.785 739.84 158.856 740.07 158.98 740.273C159.103 740.475 159.276 740.643 159.481 740.761L354.792 853.501C362.001 857.693 370.188 859.911 378.527 859.933V756.049C378.012 756.218 377.456 756.218 376.94 756.049M95.8003 268.532C95.813 267.947 95.9675 267.373 96.2506 266.86L6.43243 214.993C2.25184 222.207 0.034076 230.39 2.63657e-06 238.728V621.053C-0.00258072 628.812 1.89329 636.454 5.52225 643.312C9.15122 650.17 14.403 656.036 20.8196 660.398L93.7205 702.574C93.9302 702.707 94.1731 702.779 94.4216 702.781C94.6701 702.783 94.9143 702.716 95.1264 702.586C95.3385 702.457 95.5101 702.271 95.6216 702.049C95.7331 701.827 95.7802 701.578 95.7575 701.33L95.8003 268.532Z" fill="#FFC447"/>
<path d="M97.4733 265.638L313.882 140.633C314.082 140.516 314.248 140.349 314.363 140.147C314.479 139.946 314.539 139.718 314.539 139.486C314.539 139.254 314.479 139.026 314.363 138.825C314.248 138.624 314.082 138.456 313.882 138.339L220.547 84.6066C220.348 84.4808 220.118 84.4141 219.882 84.4141C219.647 84.4141 219.417 84.4808 219.218 84.6066L23.7361 197.539C16.3957 201.756 10.3062 207.845 6.08984 215.186L95.9938 267.053C96.2658 266.517 96.7013 266.081 97.2374 265.809" fill="#FFC447"/>
<path d="M757.355 281.699C757.377 281.359 757.304 281.02 757.145 280.72C756.985 280.419 756.746 280.168 756.453 279.995C756.16 279.822 755.825 279.733 755.484 279.739C755.144 279.744 754.812 279.844 754.525 280.027L381.272 496.951C380.486 497.426 379.585 497.677 378.667 497.677C377.749 497.677 376.848 497.426 376.062 496.951L161.647 374.863C161.36 374.68 161.028 374.58 160.688 374.575C160.348 374.569 160.012 374.658 159.719 374.831C159.426 375.004 159.187 375.255 159.028 375.556C158.868 375.856 158.796 376.195 158.817 376.535V529.949C158.808 530.29 158.893 530.627 159.063 530.922C159.234 531.217 159.482 531.46 159.782 531.622L375.998 655.125C376.784 655.6 377.684 655.851 378.603 655.851C379.521 655.851 380.422 655.6 381.208 655.125L754.289 439.337C755.074 438.872 755.728 438.215 756.19 437.427C756.651 436.639 756.905 435.747 756.926 434.835L757.355 281.699Z" fill="#00AF9A"/>
<path d="M1049.79 234.312C1044.29 232.817 1039.01 230.588 1034.1 227.687C1033.24 227.142 1032.62 226.301 1032.34 225.325C1032.06 224.348 1032.16 223.304 1032.6 222.391L1038.15 210.384C1038.4 209.883 1038.75 209.438 1039.18 209.076C1039.61 208.715 1040.1 208.443 1040.64 208.279C1041.17 208.115 1041.74 208.061 1042.29 208.12C1042.85 208.18 1043.39 208.351 1043.88 208.625C1047.86 210.916 1052.09 212.75 1056.48 214.093C1062.59 215.998 1068.95 216.981 1075.35 217.009C1089.46 217.009 1096.52 213.042 1096.52 205.002C1096.59 203.265 1096.09 201.553 1095.11 200.122C1094.12 198.691 1092.7 197.62 1091.05 197.068C1085.34 195.005 1079.42 193.567 1073.4 192.78C1066.53 191.735 1059.75 190.172 1053.12 188.106C1047.86 186.437 1043.13 183.395 1039.44 179.293C1035.32 174.063 1033.28 167.496 1033.71 160.853C1033.57 156.072 1034.58 151.326 1036.67 147.023C1038.76 142.721 1041.87 138.99 1045.72 136.153C1055.2 129.526 1066.63 126.265 1078.18 126.89C1085.2 126.909 1092.19 127.766 1099 129.442C1103.71 130.498 1108.28 132.125 1112.6 134.287C1113.53 134.779 1114.25 135.61 1114.59 136.611C1114.93 137.612 1114.88 138.706 1114.44 139.669L1108.8 151.569C1108.57 152.052 1108.24 152.483 1107.83 152.838C1107.43 153.192 1106.96 153.463 1106.45 153.635C1105.94 153.806 1105.41 153.875 1104.87 153.837C1104.34 153.799 1103.81 153.655 1103.33 153.413C1095.51 149.384 1086.81 147.323 1078.01 147.41C1072.54 147.03 1067.08 148.189 1062.23 150.755C1060.6 151.581 1059.23 152.84 1058.26 154.394C1057.3 155.948 1056.78 157.738 1056.76 159.567C1056.65 161.469 1057.16 163.356 1058.21 164.944C1059.26 166.533 1060.8 167.738 1062.6 168.379C1068.29 170.581 1074.21 172.176 1080.24 173.14C1086.97 174.208 1093.6 175.771 1100.1 177.814C1105.23 179.533 1109.82 182.572 1113.41 186.626C1117.33 191.649 1119.3 197.914 1118.96 204.273C1119.1 209.044 1118.05 213.774 1115.91 218.041C1113.77 222.307 1110.61 225.975 1106.7 228.716C1096.77 235.18 1085.02 238.27 1073.19 237.529C1065.06 237.621 1056.97 236.464 1049.19 234.098M1158.03 84.9504H1175.68C1176.51 84.9736 1177.31 85.2451 1177.98 85.7297C1178.65 86.2143 1179.16 86.8896 1179.45 87.6681C1179.73 88.4467 1179.78 89.2926 1179.57 90.0964C1179.37 90.9002 1178.93 91.6247 1178.31 92.1762L1157.75 111.945C1157.01 112.554 1156.08 112.894 1155.12 112.91H1142.68C1141.89 112.892 1141.12 112.649 1140.47 112.209C1139.81 111.769 1139.3 111.151 1138.98 110.427C1138.66 109.704 1138.56 108.905 1138.69 108.126C1138.81 107.346 1139.15 106.618 1139.68 106.027L1155.03 86.2583C1155.42 85.8504 1155.88 85.5231 1156.4 85.295C1156.91 85.0669 1157.47 84.9639 1158.03 84.9504ZM1141.44 127.748H1156.96C1157.5 127.736 1158.03 127.833 1158.54 128.031C1159.04 128.23 1159.49 128.526 1159.88 128.904C1160.27 129.281 1160.57 129.732 1160.78 130.229C1160.99 130.727 1161.1 131.261 1161.1 131.8V232.275C1161.1 233.373 1160.66 234.425 1159.89 235.202C1159.11 235.978 1158.06 236.414 1156.96 236.414H1141.44C1140.35 236.391 1139.32 235.945 1138.56 235.172C1137.81 234.398 1137.38 233.358 1137.38 232.275V131.8C1137.38 130.725 1137.81 129.695 1138.57 128.935C1139.33 128.175 1140.36 127.748 1141.44 127.748ZM1266.8 138.576C1275.11 148.385 1279.25 161.048 1278.36 173.869V231.997C1278.37 232.536 1278.28 233.072 1278.08 233.574C1277.88 234.075 1277.58 234.532 1277.2 234.918C1276.83 235.303 1276.38 235.609 1275.88 235.818C1275.38 236.027 1274.85 236.135 1274.31 236.135H1258.78C1257.7 236.112 1256.67 235.666 1255.91 234.893C1255.16 234.119 1254.73 233.079 1254.73 231.997V177.406C1255.26 169.742 1253.04 162.14 1248.47 155.965C1246.25 153.532 1243.51 151.622 1240.46 150.373C1237.41 149.123 1234.12 148.565 1230.82 148.739C1226.95 148.604 1223.09 149.324 1219.52 150.847C1215.95 152.37 1212.76 154.659 1210.18 157.551C1204.7 164.44 1201.99 173.127 1202.59 181.909V232.726C1202.59 233.8 1202.16 234.831 1201.4 235.591C1200.64 236.351 1199.61 236.778 1198.53 236.778H1183.01C1181.94 236.778 1180.9 236.351 1180.14 235.591C1179.38 234.831 1178.96 233.8 1178.96 232.726V131.95C1178.98 130.882 1179.41 129.864 1180.17 129.109C1180.92 128.354 1181.94 127.92 1183.01 127.898H1197.4C1198.47 127.898 1199.5 128.325 1200.26 129.085C1201.02 129.845 1201.45 130.875 1201.45 131.95V141.921C1205.35 136.941 1210.45 133.026 1216.27 130.535C1222.6 127.88 1229.42 126.559 1236.29 126.654C1241.95 126.396 1247.6 127.332 1252.88 129.401C1258.15 131.469 1262.93 134.625 1266.91 138.661M1364.64 211.734C1369.27 208.863 1372.99 204.736 1375.36 199.834C1377.98 194.319 1379.33 188.292 1379.33 182.188C1379.33 176.084 1377.98 170.057 1375.36 164.541C1373.03 159.611 1369.3 155.474 1364.64 152.641C1361.21 150.49 1357.38 149.079 1353.37 148.497C1349.37 147.916 1345.29 148.178 1341.39 149.266C1337.5 150.354 1333.87 152.245 1330.75 154.816C1327.63 157.388 1325.07 160.583 1323.26 164.198C1320.64 169.805 1319.29 175.916 1319.29 182.102C1319.29 188.288 1320.64 194.4 1323.26 200.006C1325.69 204.826 1329.4 208.884 1333.98 211.734C1338.62 214.449 1343.91 215.88 1349.29 215.88C1354.67 215.88 1359.95 214.449 1364.6 211.734M1402.61 89.5174V232.275C1402.63 232.815 1402.53 233.351 1402.33 233.852C1402.13 234.354 1401.83 234.811 1401.46 235.196C1401.08 235.582 1400.63 235.888 1400.13 236.097C1399.63 236.306 1399.1 236.414 1398.56 236.414H1384C1382.92 236.391 1381.89 235.945 1381.13 235.172C1380.37 234.398 1379.95 233.358 1379.95 232.275V222.305C1376.22 227.377 1371.23 231.389 1365.48 233.948C1359.47 236.579 1352.97 237.902 1346.42 237.829C1337.12 238.025 1327.95 235.611 1319.96 230.86C1312.29 226.283 1306.06 219.65 1301.97 211.713C1297.42 202.66 1295.15 192.637 1295.34 182.509C1295.14 172.408 1297.41 162.41 1301.97 153.392C1306.09 145.276 1312.42 138.49 1320.24 133.816C1328.26 129.134 1337.41 126.753 1346.69 126.933C1353 126.862 1359.25 128.096 1365.05 130.557C1370.46 132.941 1375.24 136.57 1378.99 141.149V89.4531C1379.01 88.3852 1379.44 87.3671 1380.2 86.6118C1380.95 85.8565 1381.97 85.4226 1383.04 85.4006H1398.56C1399.64 85.4006 1400.67 85.8276 1401.43 86.5876C1402.19 87.3476 1402.61 88.3783 1402.61 89.4531M1434.95 127.748H1450.47C1451.01 127.736 1451.55 127.833 1452.05 128.031C1452.55 128.23 1453.01 128.526 1453.39 128.904C1453.78 129.281 1454.08 129.732 1454.29 130.229C1454.5 130.727 1454.61 131.261 1454.61 131.8V232.275C1454.61 233.373 1454.17 234.425 1453.4 235.202C1452.62 235.978 1451.57 236.414 1450.47 236.414H1434.95C1433.86 236.391 1432.83 235.945 1432.08 235.172C1431.32 234.398 1430.89 233.358 1430.89 232.275V131.8C1430.89 130.725 1431.32 129.695 1432.08 128.935C1432.84 128.175 1433.87 127.748 1434.95 127.748ZM1655.32 206.696C1661.03 199.744 1664.14 191.03 1664.14 182.038C1664.14 173.046 1661.03 164.332 1655.32 157.38C1652.61 154.353 1649.27 151.949 1645.54 150.335C1641.81 148.722 1637.77 147.936 1633.71 148.031C1629.67 147.932 1625.66 148.717 1621.95 150.332C1618.25 151.947 1614.94 154.352 1612.27 157.38C1606.56 164.332 1603.45 173.046 1603.45 182.038C1603.45 191.03 1606.56 199.744 1612.27 206.696C1615.02 209.646 1618.36 211.998 1622.06 213.606C1625.76 215.214 1629.76 216.044 1633.8 216.044C1637.83 216.044 1641.83 215.214 1645.53 213.606C1649.23 211.998 1652.57 209.646 1655.32 206.696ZM1606.01 230.689C1597.89 225.999 1591.25 219.118 1586.86 210.834C1582.33 201.921 1579.98 192.066 1579.98 182.07C1579.98 172.074 1582.33 162.219 1586.86 153.306C1591.26 145.078 1597.9 138.262 1606.01 133.644C1614.5 128.955 1624.05 126.496 1633.75 126.496C1643.46 126.496 1653 128.955 1661.5 133.644C1669.64 138.28 1676.32 145.097 1680.79 153.328C1685.32 162.24 1687.68 172.095 1687.68 182.091C1687.68 192.087 1685.32 201.942 1680.79 210.855C1676.33 219.135 1669.65 226.009 1661.5 230.71C1653 235.399 1643.46 237.858 1633.75 237.858C1624.05 237.858 1614.5 235.399 1606.01 230.71M1795.57 138.576C1803.82 148.411 1807.93 161.063 1807.04 173.869V231.997C1807.05 232.536 1806.96 233.072 1806.76 233.574C1806.56 234.075 1806.26 234.532 1805.89 234.918C1805.51 235.303 1805.06 235.609 1804.56 235.818C1804.06 236.027 1803.53 236.135 1802.99 236.135H1787.47C1786.38 236.112 1785.35 235.666 1784.6 234.893C1783.84 234.119 1783.41 233.079 1783.41 231.997V177.406C1783.97 169.752 1781.78 162.151 1777.24 155.965C1775 153.546 1772.26 151.646 1769.22 150.398C1766.17 149.149 1762.88 148.583 1759.59 148.739C1755.71 148.604 1751.86 149.324 1748.29 150.847C1744.72 152.37 1741.53 154.659 1738.94 157.551C1733.47 164.44 1730.76 173.127 1731.35 181.909V232.726C1731.37 233.261 1731.27 233.793 1731.07 234.29C1730.87 234.787 1730.57 235.239 1730.19 235.617C1729.81 235.996 1729.36 236.294 1728.87 236.493C1728.37 236.693 1727.84 236.79 1727.3 236.778H1711.41C1710.34 236.778 1709.31 236.351 1708.55 235.591C1707.79 234.831 1707.36 233.8 1707.36 232.726V131.95C1707.38 130.882 1707.82 129.864 1708.57 129.109C1709.33 128.354 1710.35 127.92 1711.41 127.898H1725.8C1726.88 127.898 1727.92 128.322 1728.7 129.079C1729.47 129.837 1729.92 130.868 1729.94 131.95V141.921C1733.79 136.925 1738.86 133.005 1744.67 130.535C1751.01 127.88 1757.82 126.559 1764.7 126.654C1770.37 126.396 1776.03 127.332 1781.32 129.4C1786.61 131.468 1791.41 134.623 1795.4 138.661M1857.15 154.121C1851.75 159.194 1848.37 166.048 1847.63 173.418H1904.97C1904.23 166.125 1900.92 159.333 1895.62 154.271C1890.31 149.577 1883.47 146.986 1876.38 146.986C1869.3 146.986 1862.46 149.577 1857.15 154.271M1923.15 190.121H1847.72C1848.84 197.603 1852.71 204.399 1858.57 209.183C1864.83 213.967 1872.56 216.43 1880.44 216.151C1889.37 216.346 1898.05 213.204 1904.79 207.339C1905.2 206.961 1905.69 206.671 1906.21 206.488C1906.74 206.305 1907.3 206.233 1907.85 206.275C1908.41 206.317 1908.95 206.473 1909.44 206.734C1909.93 206.995 1910.36 207.354 1910.71 207.789L1918.39 217.309C1919.05 218.051 1919.41 219.008 1919.41 220C1919.41 220.992 1919.05 221.949 1918.39 222.691C1914.2 227.229 1909.08 230.813 1903.38 233.197C1894.89 236.6 1885.77 238.13 1876.64 237.682C1867.5 237.234 1858.57 234.819 1850.46 230.603C1842.16 226.005 1835.36 219.112 1830.88 210.748C1826.21 201.896 1823.84 192.006 1824 181.995C1823.84 172.032 1826.15 162.185 1830.71 153.328C1834.93 145.117 1841.38 138.265 1849.32 133.558C1857.34 128.83 1866.48 126.363 1875.78 126.418C1885.08 126.233 1894.24 128.646 1902.24 133.387C1910.06 138.115 1916.37 144.973 1920.42 153.156C1924.93 162.308 1927.14 172.42 1926.86 182.617V186.24C1926.79 187.293 1926.33 188.28 1925.56 189.002C1924.79 189.723 1923.77 190.123 1922.72 190.121M2007.05 227.708C2007.36 228.565 2007.37 229.5 2007.08 230.363C2006.79 231.227 2006.22 231.968 2005.46 232.468C2003.15 234.015 2000.62 235.208 1997.96 236.006C1993.87 237.253 1989.62 237.875 1985.35 237.85C1980.64 238.13 1975.93 237.437 1971.5 235.814C1967.07 234.191 1963.03 231.672 1959.62 228.416C1956.42 224.68 1954 220.349 1952.49 215.671C1950.97 210.994 1950.4 206.063 1950.81 201.164V148.846H1938.2C1937.12 148.846 1936.09 148.419 1935.33 147.659C1934.57 146.899 1934.15 145.869 1934.15 144.794V132.358C1934.17 131.29 1934.6 130.272 1935.36 129.516C1936.11 128.761 1937.13 128.327 1938.2 128.305H1950.81V107.829C1950.81 106.746 1951.23 105.706 1951.99 104.932C1952.75 104.159 1953.78 103.713 1954.86 103.69H1970.38C1970.92 103.69 1971.46 103.798 1971.95 104.007C1972.45 104.216 1972.9 104.522 1973.28 104.907C1973.66 105.293 1973.95 105.75 1974.15 106.251C1974.35 106.753 1974.45 107.289 1974.44 107.829V128.562H1997.46C1998.53 128.584 1999.55 129.018 2000.3 129.774C2001.06 130.529 2001.49 131.547 2001.52 132.615V144.794C2001.52 145.869 2001.09 146.899 2000.33 147.659C1999.57 148.419 1998.54 148.846 1997.46 148.846H1974.39V200.542C1974.07 204.882 1975.36 209.189 1978.02 212.635C1979.31 214.091 1980.92 215.233 1982.72 215.976C1984.52 216.719 1986.47 217.043 1988.42 216.923C1991.67 216.97 1994.9 216.273 1997.85 214.886C1998.36 214.657 1998.92 214.534 1999.48 214.526C2000.04 214.518 2000.6 214.624 2001.12 214.839C2001.64 215.054 2002.11 215.372 2002.5 215.775C2002.89 216.177 2003.2 216.656 2003.4 217.18L2007.05 227.708ZM1430.27 85.4864L1441.66 79.397C1442.11 79.1769 1442.61 79.0625 1443.12 79.0625C1443.62 79.0625 1444.12 79.1769 1444.57 79.397L1455.96 85.8295C1456.41 86.0888 1456.78 86.4602 1457.05 86.9074C1457.31 87.3545 1457.45 87.8623 1457.46 88.381V101.439C1457.44 101.943 1457.29 102.433 1457.03 102.864C1456.76 103.295 1456.4 103.653 1455.96 103.905L1444.57 110.337C1444.13 110.593 1443.63 110.728 1443.12 110.728C1442.6 110.728 1442.1 110.593 1441.66 110.337L1430.27 103.905C1429.82 103.674 1429.44 103.321 1429.17 102.885C1428.91 102.45 1428.77 101.949 1428.77 101.439V88.2095C1428.76 87.6871 1428.9 87.1722 1429.16 86.7218C1429.43 86.2715 1429.81 85.9033 1430.27 85.6579M1553.95 206.438C1553.7 206.17 1553.4 205.956 1553.07 205.809C1552.73 205.663 1552.37 205.587 1552.01 205.587C1551.64 205.587 1551.28 205.663 1550.95 205.809C1550.61 205.956 1550.31 206.17 1550.07 206.438C1548.11 208.693 1545.78 210.6 1543.18 212.077C1538.85 214.624 1533.91 215.936 1528.88 215.873C1524.79 216.066 1520.7 215.38 1516.89 213.86C1513.09 212.339 1509.65 210.021 1506.82 207.06C1501.14 200.098 1498.04 191.388 1498.04 182.402C1498.04 173.417 1501.14 164.707 1506.82 157.744C1509.61 154.731 1513.01 152.346 1516.8 150.749C1520.59 149.152 1524.67 148.379 1528.78 148.482C1533.79 148.431 1538.72 149.711 1543.08 152.191C1545.71 153.731 1548.06 155.703 1550.04 158.023C1550.3 158.345 1550.63 158.605 1551 158.783C1551.37 158.962 1551.78 159.055 1552.19 159.055C1552.6 159.055 1553.01 158.962 1553.38 158.783C1553.75 158.605 1554.08 158.345 1554.33 158.023C1557.33 154.314 1562.46 147.796 1564.84 144.622C1565.27 144.153 1565.5 143.541 1565.5 142.907C1565.5 142.273 1565.27 141.661 1564.84 141.192C1562.1 138.167 1558.92 135.578 1555.41 133.516C1547.32 129.053 1538.18 126.833 1528.95 127.083C1519.07 126.919 1509.32 129.383 1500.71 134.223C1492.53 138.829 1485.8 145.642 1481.3 153.885C1476.64 162.754 1474.2 172.626 1474.2 182.649C1474.2 192.672 1476.64 202.544 1481.3 211.413C1485.8 219.735 1492.56 226.618 1500.79 231.268C1509.4 236.029 1519.09 238.46 1528.93 238.322C1538.04 238.515 1547.04 236.224 1554.96 231.696C1559.23 229.247 1563.02 226.052 1566.17 222.262C1566.62 221.747 1566.86 221.089 1566.86 220.407C1566.86 219.726 1566.62 219.067 1566.17 218.553L1554.08 206.996M1393.84 696.914C1368.1 682.128 1347.03 660.394 1333.06 634.197C1318.22 606.177 1310.73 574.856 1311.27 543.157C1310.68 511.561 1318.18 480.338 1333.06 452.459C1347.06 426.282 1368.12 404.555 1393.84 389.742C1420.7 374.986 1450.84 367.25 1481.49 367.25C1512.13 367.25 1542.27 374.986 1569.13 389.742C1594.82 404.485 1615.87 426.12 1629.91 452.201C1644.79 480.081 1652.29 511.303 1651.7 542.899C1652.24 574.599 1644.75 605.92 1629.91 633.94C1616.03 660.216 1595.02 682.048 1569.3 696.935C1542.44 711.778 1512.26 719.563 1481.57 719.563C1450.89 719.563 1420.7 711.778 1393.84 696.935M1549.38 621.075C1566.87 598.876 1576.38 571.438 1576.38 543.178C1576.38 514.918 1566.87 487.48 1549.38 465.281C1540.66 455.958 1530.13 448.525 1518.42 443.444C1506.71 438.362 1494.09 435.74 1481.33 435.74C1468.56 435.74 1455.94 438.362 1444.23 443.444C1432.52 448.525 1421.99 455.958 1413.27 465.281C1394.91 486.96 1385.45 514.799 1386.81 543.178C1385.45 571.557 1394.91 599.396 1413.27 621.075C1421.99 630.398 1432.52 637.83 1444.23 642.912C1455.94 647.994 1468.56 650.616 1481.33 650.616C1494.09 650.616 1506.71 647.994 1518.42 642.912C1530.13 637.83 1540.66 630.398 1549.38 621.075ZM1229.05 620.089C1227.4 618.496 1225.2 617.605 1222.91 617.605C1220.62 617.605 1218.42 618.496 1216.78 620.089C1210.53 627.124 1203.17 633.085 1195 637.735C1181.27 645.662 1165.67 649.771 1149.82 649.635C1136.78 650.059 1123.8 647.661 1111.78 642.606C1099.75 637.551 1088.96 629.958 1080.13 620.346C1061.22 598.835 1051.45 570.797 1052.88 542.192C1051.45 513.537 1061.34 485.468 1080.41 464.037C1089.23 454.495 1099.99 446.947 1111.96 441.896C1123.94 436.845 1136.85 434.408 1149.84 434.748C1165.69 434.613 1181.29 438.722 1195.02 446.648C1203.53 451.661 1211.11 458.11 1217.42 465.71C1218.25 466.678 1219.28 467.456 1220.44 467.989C1221.59 468.522 1222.85 468.798 1224.12 468.798C1225.4 468.798 1226.66 468.522 1227.81 467.989C1228.97 467.456 1230 466.678 1230.82 465.71L1263.99 423.363C1265.25 421.799 1265.93 419.855 1265.93 417.852C1265.93 415.849 1265.25 413.905 1263.99 412.342C1255.08 402.741 1244.72 394.588 1233.29 388.177C1208.01 374.049 1179.41 366.949 1150.46 367.614C1119.18 367.047 1088.3 374.81 1061.01 390.107C1035.03 404.755 1013.64 426.354 999.257 452.48C984.707 480.576 977.113 511.753 977.113 543.392C977.113 575.032 984.707 606.209 999.257 634.305C1013.56 660.582 1034.96 682.314 1061.01 697.021C1088.21 712.331 1119 720.124 1150.2 719.599C1179.01 720.191 1207.44 712.935 1232.43 698.608C1245.9 690.838 1257.85 680.706 1267.73 668.697C1269.04 666.993 1269.68 664.87 1269.53 662.725C1269.39 660.581 1268.46 658.564 1266.93 657.054L1228.85 620.453M2238.25 568.651H1999.63C2003.08 592.311 2015.33 613.797 2033.94 628.816C2053.72 644.004 2078.18 651.835 2103.11 650.965C2131.37 651.674 2158.86 641.724 2180.12 623.091C2181.42 621.924 2182.95 621.033 2184.6 620.475C2186.26 619.916 2188.01 619.7 2189.75 619.841C2191.49 619.981 2193.19 620.475 2194.73 621.292C2196.28 622.108 2197.64 623.231 2198.73 624.592L2222.98 654.846C2224.95 657.265 2225.97 660.316 2225.86 663.432C2225.74 666.548 2224.5 669.516 2222.36 671.784C2209.2 686.091 2193.11 697.403 2175.19 704.955C2148.35 715.522 2119.55 720.203 2090.74 718.683C2061.93 717.163 2033.79 709.476 2008.21 696.142C1982.02 681.606 1960.58 659.832 1946.45 633.425C1931.59 605.413 1924.07 574.092 1924.58 542.385C1924.14 510.955 1931.44 479.9 1945.85 451.966C1959.26 425.97 1979.67 404.245 2004.78 389.249C2030.52 374.089 2059.94 366.308 2089.81 366.757C2119.14 366.291 2148.02 373.957 2173.26 388.906C2197.92 403.876 2217.83 425.534 2230.68 451.365C2244.92 480.257 2252.01 512.152 2251.33 544.357V555.957C2251.18 559.264 2249.75 562.384 2247.36 564.668C2244.96 566.953 2241.78 568.225 2238.47 568.222M2028.85 454.41C2011.93 470.468 2001.26 492.02 1998.75 515.218H2180.12C2177.84 492.222 2167.42 470.797 2150.75 454.796C2134.3 439.302 2112.38 430.96 2089.79 431.596C2067.33 431.053 2045.54 439.247 2029 454.453M3172.75 568.651H2934.56C2937.94 592.337 2950.2 613.849 2968.87 628.816C2988.61 644.012 3013.03 651.846 3037.93 650.965C3066.25 651.692 3093.8 641.742 3115.12 623.091C3116.42 621.937 3117.94 621.059 3119.58 620.508C3121.23 619.957 3122.97 619.745 3124.7 619.885C3126.43 620.026 3128.12 620.515 3129.66 621.324C3131.19 622.133 3132.55 623.244 3133.65 624.592L3158.17 654.846C3160.14 657.265 3161.16 660.316 3161.05 663.432C3160.93 666.548 3159.69 669.516 3157.55 671.784C3144.39 686.091 3128.3 697.403 3110.38 704.955C3083.54 715.522 3054.74 720.203 3025.93 718.683C2997.12 717.163 2968.98 709.476 2943.4 696.142C2917.21 681.606 2895.77 659.832 2881.64 633.425C2866.81 605.405 2859.32 574.084 2859.86 542.385C2859.38 510.964 2866.65 479.909 2881.02 451.966C2894.46 425.962 2914.91 404.237 2940.05 389.249C2965.77 374.1 2995.16 366.319 3025 366.757C3054.33 366.291 3083.21 373.957 3108.45 388.906C3133.11 403.877 3153.02 425.534 3165.87 451.365C3180.14 480.251 3187.25 512.146 3186.61 544.357C3186.65 548.215 3186.5 552.072 3186.16 555.914C3186 559.221 3184.58 562.341 3182.18 564.625C3179.79 566.91 3176.6 568.182 3173.29 568.179M2964.04 454.367C2947.1 470.43 2936.43 492.002 2933.94 515.218H3115.33C3113.07 492.234 3102.69 470.81 3086.05 454.796C3069.56 439.297 3047.62 430.956 3025 431.596C3002.54 431.053 2980.75 439.247 2964.22 454.453M2494 233.347H2543.06C2546.47 233.347 2549.75 234.703 2552.16 237.115C2554.57 239.528 2555.93 242.8 2555.93 246.212V409.683C2567.81 394.586 2583.23 382.649 2600.83 374.926C2619.14 367.006 2638.92 363.039 2658.87 363.283C2687.96 362.848 2716.61 370.413 2741.7 385.154C2766.4 399.867 2786.44 421.277 2799.48 446.905C2813.24 475.674 2820.39 507.16 2820.39 539.05C2820.39 570.941 2813.24 602.427 2799.48 631.196C2786.48 656.851 2766.43 678.271 2741.7 692.947C2716.61 707.688 2687.96 715.253 2658.87 714.818C2638.18 715.074 2617.67 710.922 2598.7 702.639C2580.59 694.468 2564.84 681.839 2552.93 665.931V697.557C2552.93 700.969 2551.57 704.241 2549.16 706.654C2546.74 709.067 2543.47 710.422 2540.06 710.422H2494C2490.59 710.422 2487.32 709.067 2484.91 706.654C2482.49 704.241 2481.14 700.969 2481.14 697.557V246.234C2481.14 242.822 2482.49 239.55 2484.91 237.137C2487.32 234.724 2490.59 233.347 2494 233.347ZM2649.88 646.505C2666.98 646.748 2683.8 642.162 2698.41 633.275C2713.05 624.176 2724.84 611.154 2732.45 595.688C2740.76 577.962 2745.07 558.626 2745.07 539.05C2745.07 519.475 2740.76 500.139 2732.45 482.413C2725.01 466.915 2713.27 453.885 2698.63 444.875C2683.99 435.865 2667.07 431.256 2649.88 431.596C2632.83 431.376 2616.05 435.928 2601.45 444.74C2586.72 453.844 2574.83 466.895 2567.14 482.413C2558.89 500.153 2554.61 519.484 2554.61 539.05C2554.61 558.617 2558.89 577.948 2567.14 595.688C2574.78 611.16 2586.61 624.181 2601.28 633.275C2615.86 642.151 2632.64 646.736 2649.71 646.505M1903.46 683.17C1904.46 685.901 1904.51 688.885 1903.62 691.65C1902.73 694.415 1900.94 696.803 1898.53 698.436C1891.18 703.288 1883.15 707.03 1874.71 709.543C1861.8 713.401 1848.39 715.33 1834.92 715.268C1820.03 716.245 1805.1 714.123 1791.08 709.037C1777.06 703.952 1764.24 696.013 1753.44 685.721C1733.01 661.994 1722.72 631.196 1724.77 599.955V434.126H1684.89C1681.48 434.126 1678.21 432.771 1675.79 430.358C1673.38 427.946 1672.03 424.673 1672.03 421.261V382.666C1672.03 379.254 1673.38 375.982 1675.79 373.57C1678.21 371.157 1681.48 369.802 1684.89 369.802H1724.81V303.997C1724.81 302.284 1725.16 300.588 1725.82 299.009C1726.48 297.43 1727.46 295.999 1728.68 294.8C1729.9 293.602 1731.36 292.66 1732.95 292.031C1734.54 291.401 1736.24 291.095 1737.96 291.132H1786.99C1790.38 291.178 1793.6 292.553 1795.98 294.961C1798.36 297.368 1799.69 300.615 1799.69 303.997V369.63H1872.37C1875.79 369.63 1879.06 370.985 1881.47 373.398C1883.88 375.811 1885.24 379.083 1885.24 382.495V421.09C1885.24 422.779 1884.91 424.452 1884.26 426.013C1883.61 427.574 1882.67 428.992 1881.47 430.187C1880.28 431.381 1878.86 432.329 1877.3 432.975C1875.74 433.622 1874.06 433.955 1872.37 433.955H1799.69V597.339C1798.73 611.061 1802.77 624.665 1811.07 635.634C1815.22 640.162 1820.33 643.701 1826.03 645.991C1831.72 648.28 1837.86 649.262 1843.99 648.863C1854.32 649.028 1864.55 646.828 1873.9 642.431C1875.52 641.656 1877.28 641.229 1879.08 641.177C1880.87 641.126 1882.66 641.451 1884.32 642.132C1885.98 642.812 1887.49 643.834 1888.73 645.13C1889.97 646.426 1890.93 647.968 1891.54 649.657L1903.46 683.17ZM2328.41 370.531H2377.47C2379.21 370.481 2380.93 370.784 2382.55 371.42C2384.17 372.057 2385.64 373.014 2386.87 374.234C2388.11 375.454 2389.09 376.912 2389.74 378.52C2390.4 380.128 2390.73 381.852 2390.7 383.588V701.159C2390.77 702.925 2390.48 704.686 2389.85 706.334C2389.21 707.982 2388.24 709.482 2387 710.739C2385.76 711.996 2384.27 712.984 2382.63 713.642C2380.99 714.299 2379.24 714.612 2377.47 714.56H2328.41C2325 714.56 2321.73 713.205 2319.32 710.792C2316.9 708.38 2315.55 705.107 2315.55 701.695V384.103C2315.45 382.353 2315.71 380.602 2316.31 378.956C2316.91 377.31 2317.84 375.804 2319.05 374.531C2320.25 373.258 2321.7 372.245 2323.31 371.553C2324.92 370.862 2326.66 370.528 2328.41 370.531ZM2313.42 237.228L2349.6 216.58C2350.94 215.807 2352.46 215.399 2354 215.399C2355.55 215.399 2357.07 215.807 2358.41 216.58L2394.58 237.228C2395.97 238.059 2397.12 239.233 2397.92 240.638C2398.73 242.042 2399.16 243.63 2399.17 245.247V286.458C2399.21 288.074 2398.8 289.669 2397.99 291.068C2397.18 292.467 2396 293.617 2394.58 294.392L2358.41 315.04C2357.07 315.813 2355.55 316.22 2354 316.22C2352.46 316.22 2350.94 315.813 2349.6 315.04L2313.42 294.392C2312.01 293.615 2310.83 292.465 2310.02 291.066C2309.21 289.668 2308.8 288.074 2308.84 286.458V245.247C2308.85 243.63 2309.28 242.042 2310.08 240.638C2310.89 239.233 2312.04 238.059 2313.42 237.228ZM3771.14 403.872C3784.37 419.143 3794.44 436.883 3800.77 456.069C3807.1 475.254 3809.56 495.503 3808.02 515.647V698.115C3808.02 701.39 3806.72 704.532 3804.4 706.848C3802.09 709.164 3798.95 710.465 3795.67 710.465H3742.73C3739.46 710.465 3736.32 709.164 3734 706.848C3731.68 704.532 3730.38 701.39 3730.38 698.115V525.875C3732.11 501.874 3725.23 478.042 3710.98 458.655C3704.01 450.95 3695.4 444.918 3685.77 441.008C3676.15 437.099 3665.77 435.413 3655.4 436.077C3643.6 435.588 3631.84 437.705 3620.95 442.278C3610.06 446.852 3600.32 453.768 3592.41 462.536C3575.33 483.82 3566.86 510.739 3568.67 537.968V698.115C3568.67 701.39 3567.37 704.532 3565.05 706.848C3562.74 709.164 3559.6 710.465 3556.32 710.465H3503.38C3500.08 710.465 3496.92 709.155 3494.59 706.823C3492.26 704.49 3490.95 701.327 3490.95 698.029V525.875C3492.7 501.888 3485.86 478.06 3471.65 458.655C3464.67 450.971 3456.05 444.953 3446.43 441.046C3436.81 437.138 3426.44 435.44 3416.07 436.077C3404.22 435.574 3392.4 437.684 3381.46 442.256C3370.51 446.828 3360.71 453.752 3352.73 462.536C3335.82 484.026 3327.46 511.021 3329.28 538.311V698.115C3329.28 701.413 3327.97 704.576 3325.63 706.908C3323.3 709.241 3320.14 710.551 3316.84 710.551H3263.9C3260.62 710.528 3257.48 709.208 3255.16 706.878C3252.85 704.548 3251.55 701.398 3251.55 698.115V382.924C3251.55 381.302 3251.87 379.696 3252.49 378.197C3253.11 376.699 3254.02 375.338 3255.17 374.191C3256.32 373.044 3257.68 372.134 3259.18 371.514C3260.67 370.893 3262.28 370.573 3263.9 370.573H3313.47C3315.1 370.573 3316.7 370.893 3318.2 371.514C3319.7 372.134 3321.06 373.044 3322.21 374.191C3323.35 375.338 3324.26 376.699 3324.89 378.197C3325.51 379.696 3325.83 381.302 3325.83 382.924V413.885C3338.27 398.418 3354.37 386.29 3372.67 378.593C3392.4 370.273 3413.64 366.127 3435.05 366.414C3458.02 365.977 3480.78 370.903 3501.52 380.801C3520.28 390.375 3535.86 405.21 3546.33 423.491C3560.3 405.469 3578.48 391.143 3599.27 381.766C3621.83 371.593 3646.33 366.471 3671.08 366.757C3689.38 365.804 3707.69 368.615 3724.86 375.018C3742.03 381.42 3757.71 391.277 3770.93 403.979" fill="#3D3D3D"/>
</g>
<defs>
<clipPath id="clip0_3721_11606">
<rect width="3808" height="859.871" fill="white"/>
</clipPath>
</defs>
</svg>
