<svg width="3808" height="721" viewBox="0 0 3808 721" fill="none" xmlns="http://www.w3.org/2000/svg">
<path d="M576.507 305.771C576.464 293.534 574.012 281.426 569.289 270.137C564.567 258.848 557.668 248.599 548.985 239.977C540.302 231.354 530.005 224.526 518.684 219.883C507.362 215.24 495.237 212.872 483 212.915L223.721 213.82C211.484 213.863 199.376 216.315 188.087 221.037C176.798 225.76 166.55 232.659 157.927 241.342C149.305 250.025 142.477 260.322 137.833 271.643C133.19 282.965 130.822 295.09 130.865 307.327L130.917 322.195C130.959 334.432 133.412 346.541 138.134 357.83C142.857 369.119 149.756 379.367 158.439 387.99C167.122 396.612 177.418 403.44 188.74 408.083C200.062 412.727 212.187 415.094 224.424 415.052L483.703 414.146C495.939 414.104 508.048 411.651 519.337 406.929C530.626 402.207 540.874 395.307 549.497 386.624C558.119 377.941 564.947 367.645 569.59 356.323C574.234 345.002 576.602 332.876 576.559 320.639L576.507 305.771Z" stroke="#808080" stroke-width="2"/>
<path d="M658.006 595.467C657.924 594.929 657.974 594.379 658.151 593.864C658.329 593.35 658.628 592.886 659.025 592.513L717.785 535.484C718.225 535.047 718.536 534.497 718.683 533.894C718.83 533.292 718.807 532.661 718.617 532.07C718.427 531.48 718.078 530.954 717.608 530.55C717.137 530.146 716.565 529.879 715.952 529.781L634.787 517.255C634.246 517.179 633.731 516.973 633.287 516.653C632.843 516.334 632.484 515.911 632.241 515.422L596.598 443.524C596.328 442.961 595.907 442.485 595.382 442.149C594.857 441.812 594.248 441.628 593.625 441.618C593.001 441.607 592.387 441.77 591.851 442.089C591.315 442.408 590.878 442.869 590.589 443.422L554.538 515.931C554.295 516.42 553.936 516.843 553.492 517.163C553.049 517.482 552.534 517.688 551.992 517.764L470.42 528.864C469.799 528.947 469.214 529.202 468.731 529.6C468.247 529.998 467.884 530.523 467.683 531.115C467.482 531.708 467.45 532.346 467.592 532.956C467.734 533.565 468.043 534.124 468.485 534.567L527.653 592.819C528.031 593.202 528.312 593.67 528.471 594.184C528.631 594.698 528.664 595.242 528.57 595.772L514.21 676.225C514.098 676.846 514.163 677.486 514.397 678.073C514.632 678.659 515.027 679.167 515.537 679.539C516.047 679.911 516.652 680.132 517.282 680.176C517.912 680.22 518.541 680.086 519.099 679.789L590.691 640.887C591.177 640.628 591.719 640.493 592.269 640.493C592.82 640.493 593.362 640.628 593.848 640.887L666.968 678.465C667.525 678.762 668.155 678.896 668.785 678.852C669.415 678.808 670.019 678.587 670.529 678.215C671.04 677.843 671.435 677.335 671.669 676.749C671.904 676.162 671.969 675.522 671.856 674.901L658.006 595.467Z" stroke="#807529" stroke-width="2"/>
<path d="M280.082 314.598C274.04 302.445 277.129 293.585 289.35 288.018C289.985 287.723 290.532 287.264 290.933 286.689C291.334 286.115 291.574 285.447 291.626 284.756C291.678 284.066 291.542 283.379 291.23 282.77C290.919 282.16 290.445 281.651 289.859 281.296C262.227 264.255 240.094 267.82 223.46 291.989C214.363 305.364 212.699 324.374 218.47 349.019C218.927 350.938 219.959 352.674 221.431 354.001C222.903 355.328 224.746 356.182 226.719 356.453C248.445 359.44 270.51 359.576 292.914 356.861C294.675 356.671 296.353 356.003 297.77 354.927C299.187 353.851 300.289 352.407 300.959 350.75C304.082 343.282 305.304 334.592 304.625 324.68C304.286 320.674 302.147 319.045 298.21 319.791C294.476 320.606 290.708 320.64 286.906 319.893C283.782 319.214 281.508 317.449 280.082 314.598Z" stroke="#808080" stroke-width="2"/>
<path d="M468.687 296.873C471.131 292.935 474.526 290.151 478.871 288.522C482.809 287.028 483.08 284.991 479.685 282.412C463.527 270.191 447.912 267.543 432.84 274.468C407.312 286.281 398.622 311.062 406.769 348.81C407.166 350.611 408.086 352.252 409.41 353.522C410.735 354.792 412.403 355.634 414.203 355.939C436.472 359.673 458.944 359.945 481.62 356.754C484.947 356.278 487.391 354.513 488.953 351.458C492.823 343.65 494.486 334.824 493.943 324.98C493.739 320.906 491.635 319.209 487.629 319.888C477.445 321.653 470.724 317.376 467.465 307.056C466.311 303.458 466.718 300.064 468.687 296.873Z" stroke="#808080" stroke-width="2"/>
<path d="M110.724 561.147C81.3268 531.75 51.6918 496.751 21.8192 456.152C-10.0563 412.87 20.1898 364.192 70.5998 360.22C74.266 359.948 76.0991 357.979 76.0991 354.313V207.055C76.0991 202.574 73.8926 200.469 69.4796 200.741C46.7357 201.963 24.8065 197.21 3.69195 186.483C2.63411 185.959 1.73691 185.163 1.09047 184.175C0.444031 183.187 0.071125 182.042 0.00920616 180.855C-0.0527127 179.668 0.198544 178.481 0.737728 177.413C1.27691 176.346 2.08503 175.435 3.08092 174.772C22.0229 162.348 42.73 153.691 65.2024 148.803C65.9439 148.647 66.6309 148.302 67.1994 147.8C67.768 147.299 68.1995 146.657 68.4537 145.935C68.7079 145.213 68.7766 144.434 68.6532 143.671C68.5299 142.909 68.2186 142.187 67.7484 141.573C38.0794 104.368 17.6099 61.7653 6.33975 13.7654C5.98471 12.2605 5.95095 10.6977 6.24069 9.17891C6.53042 7.66012 7.13714 6.21948 8.02124 4.951C8.90534 3.68251 10.0469 2.61469 11.3716 1.8172C12.6962 1.01971 14.1741 0.510478 15.7089 0.322728C24.1954 -0.695657 32.3425 0.696134 40.1501 4.4981C85.3664 26.7668 129.021 53.3466 171.114 84.2376C176.875 88.477 183.86 90.7933 191.075 90.8571C287.686 91.7397 395.974 91.6379 515.94 90.5516C541.263 90.28 561.733 93.3352 577.348 99.7171C611.158 113.567 631.73 149.312 631.424 186.28C631.017 263.202 630.949 338.936 631.221 413.481C631.323 435.58 647.413 457.476 656.68 477.334C657.34 478.714 658.317 479.91 659.524 480.815C660.732 481.721 662.133 482.309 663.605 482.528C680.578 485.447 699.52 488.163 720.431 490.675C756.889 495.054 776.239 532.123 748.029 560.332C733.365 574.997 718.598 588.677 703.73 601.373C702.536 602.408 701.608 603.707 701.023 605.16C700.438 606.614 700.214 608.179 700.369 609.724C702.066 626.697 705.02 643.874 709.229 661.254C718.394 698.629 692.833 736.309 651.894 714.414C633.495 704.57 615.198 695.234 597.003 686.408C595.67 685.772 594.207 685.451 592.724 685.468C591.242 685.486 589.779 685.842 588.448 686.51C566.553 697.407 534.474 721.543 510.135 720.117C487.527 718.691 469.094 695.37 475.815 672.355C477.648 666.177 478.701 659.863 478.972 653.413C479.108 649.407 477.173 647.404 473.167 647.404C375.538 647.404 275.058 647.506 171.725 647.71C116.936 647.812 78.9506 608.706 75.5899 553.917C75.2505 548.689 77.1175 547.738 81.191 551.065C88.6592 557.311 97.7228 561.962 108.382 565.017C114.221 566.714 115.001 565.424 110.724 561.147ZM576.506 305.773C576.463 293.536 574.011 281.428 569.288 270.139C564.566 258.85 557.667 248.601 548.984 239.979C540.301 231.356 530.004 224.528 518.683 219.885C507.361 215.242 495.236 212.874 482.999 212.917L223.72 213.822C211.483 213.865 199.375 216.317 188.086 221.039C176.797 225.762 166.548 232.661 157.926 241.344C149.303 250.027 142.476 260.323 137.832 271.645C133.189 282.967 130.821 295.092 130.864 307.329L130.916 322.197C130.958 334.434 133.411 346.543 138.133 357.832C142.856 369.121 149.755 379.369 158.438 387.992C167.121 396.614 177.417 403.442 188.739 408.085C200.061 412.729 212.186 415.096 224.423 415.054L483.701 414.148C495.938 414.106 508.047 411.653 519.336 406.931C530.625 402.209 540.873 395.309 549.496 386.626C558.118 377.943 564.946 367.647 569.589 356.325C574.233 345.004 576.601 332.878 576.558 320.641L576.506 305.773ZM658.004 595.467C657.922 594.929 657.972 594.379 658.149 593.865C658.327 593.35 658.626 592.886 659.023 592.513L717.783 535.484C718.223 535.047 718.534 534.497 718.681 533.894C718.828 533.292 718.805 532.661 718.615 532.07C718.425 531.48 718.076 530.954 717.606 530.55C717.135 530.146 716.562 529.88 715.95 529.781L634.785 517.255C634.244 517.179 633.729 516.973 633.285 516.654C632.841 516.334 632.482 515.911 632.239 515.422L596.596 443.524C596.326 442.961 595.905 442.485 595.38 442.149C594.855 441.812 594.246 441.628 593.623 441.618C592.999 441.607 592.385 441.77 591.849 442.089C591.313 442.408 590.876 442.869 590.587 443.422L554.536 515.931C554.293 516.42 553.934 516.843 553.49 517.163C553.047 517.482 552.532 517.689 551.99 517.764L470.418 528.864C469.797 528.947 469.212 529.202 468.729 529.6C468.245 529.998 467.882 530.523 467.681 531.115C467.48 531.708 467.448 532.346 467.59 532.956C467.732 533.566 468.041 534.124 468.483 534.567L527.651 592.819C528.029 593.202 528.31 593.67 528.469 594.184C528.629 594.698 528.662 595.243 528.567 595.772L514.208 676.225C514.096 676.846 514.16 677.486 514.395 678.073C514.63 678.659 515.025 679.167 515.535 679.539C516.045 679.911 516.65 680.132 517.28 680.176C517.91 680.22 518.539 680.086 519.096 679.789L590.689 640.887C591.175 640.628 591.717 640.493 592.267 640.493C592.818 640.493 593.36 640.628 593.846 640.887L666.966 678.465C667.523 678.762 668.153 678.896 668.783 678.852C669.412 678.808 670.017 678.587 670.527 678.215C671.038 677.843 671.433 677.335 671.667 676.749C671.902 676.162 671.967 675.522 671.854 674.901L658.004 595.467Z" fill="black"/>
<path d="M2596.3 226.2C2593.33 226.187 2590.39 225.589 2587.65 224.44C2584.91 223.292 2582.43 221.615 2580.34 219.507C2578.25 217.398 2576.59 214.898 2575.47 212.15C2574.35 209.402 2573.78 206.459 2573.79 203.49V181.901C2573.82 167.911 2579.04 154.504 2588.3 144.631C2597.56 134.757 2610.11 129.224 2623.18 129.25H2626.03C2632.51 129.263 2638.91 130.64 2644.89 133.303C2650.86 135.966 2656.29 139.863 2660.86 144.771C2665.42 149.679 2669.04 155.502 2671.51 161.908C2673.97 168.313 2675.23 175.176 2675.22 182.104V203.694C2675.21 206.663 2674.61 209.6 2673.46 212.338C2672.31 215.076 2670.64 217.561 2668.53 219.651C2666.42 221.741 2663.92 223.395 2661.17 224.518C2658.42 225.642 2655.48 226.214 2652.51 226.2H2596.3Z" fill="black"/>
<path d="M3113.63 225.993C3110.89 225.98 3108.18 225.427 3105.65 224.365C3103.13 223.304 3100.83 221.755 3098.9 219.807C3096.97 217.859 3095.45 215.55 3094.41 213.012C3093.37 210.474 3092.85 207.756 3092.86 205.015L3093.06 181.592C3093.15 167.633 3098.41 154.277 3107.7 144.462C3116.98 134.646 3129.52 129.173 3142.56 129.247H3145C3151.46 129.283 3157.85 130.682 3163.81 133.363C3169.76 136.044 3175.16 139.956 3179.7 144.873C3184.24 149.791 3187.83 155.619 3190.26 162.024C3192.7 168.429 3193.93 175.286 3193.88 182.203L3193.68 205.626C3193.67 208.367 3193.11 211.079 3192.05 213.607C3190.99 216.135 3189.44 218.429 3187.49 220.358C3185.54 222.287 3183.24 223.814 3180.7 224.851C3178.16 225.887 3175.44 226.414 3172.7 226.401L3113.63 225.993Z" fill="black"/>
<path d="M1354.17 443.825H1323.11C1319.99 443.838 1316.89 443.232 1314 442.04C1311.11 440.849 1308.48 439.095 1306.27 436.881C1304.05 434.667 1302.3 432.036 1301.1 429.138C1299.9 426.24 1299.28 423.133 1299.28 419.995L1299.48 385.879C1299.55 370.196 1307.39 362.354 1323.01 362.354H1445.83C1449.88 362.354 1453.76 363.964 1456.63 366.828C1459.49 369.693 1461.1 373.578 1461.1 377.63V547.802C1461.11 549.369 1460.72 550.915 1459.97 552.302C1459.22 553.688 1458.14 554.871 1456.82 555.745C1371.89 611.145 1240.32 619.191 1155.38 555.338C1070.76 491.791 1046.21 374.575 1086.34 278.847C1140.11 150.836 1293.17 122.117 1413.14 173.24C1425.15 178.4 1435.81 185.461 1445.11 194.422C1468.33 216.929 1445.93 242.592 1432.59 261.33C1427.98 267.834 1421.03 272.29 1413.2 273.754C1405.37 275.218 1397.27 273.574 1390.63 269.172C1321.89 223.854 1219.85 228.131 1188.79 316.73C1177.99 347.689 1175.95 388.527 1184.41 419.282C1206 497.494 1261.43 526.62 1350.71 506.659C1353.86 505.962 1356.68 504.209 1358.7 501.69C1360.72 499.171 1361.82 496.037 1361.81 492.809V451.463C1361.81 446.371 1359.26 443.825 1354.17 443.825Z" fill="black"/>
<path d="M2405.86 408.689L2405.55 167.637C2405.55 158.268 2410.24 153.584 2419.61 153.584H2488.96C2498.73 153.584 2503.62 158.438 2503.62 168.147V576.621C2503.62 581.403 2501.75 585.994 2498.39 589.404C2495.04 592.814 2490.48 594.77 2485.7 594.85C2456.68 595.359 2426.94 601.877 2406.67 574.584C2348.62 496.779 2291.73 419.993 2235.99 344.225C2230.29 336.486 2227.44 337.436 2227.44 347.077V574.177C2227.44 588.162 2220.48 595.155 2206.56 595.155L2151.77 595.461C2137.72 595.461 2130.69 588.434 2130.69 574.38V171.609C2130.7 167.485 2132.2 163.503 2134.91 160.396C2137.63 157.29 2141.37 155.269 2145.46 154.704C2169.69 151.377 2191.28 152.531 2210.23 158.166C2213.93 159.293 2217.18 161.577 2219.49 164.684L2401.58 410.115C2404.43 413.985 2405.86 413.509 2405.86 408.689Z" fill="black"/>
<path d="M1971.52 357.265V504.116C1971.52 506.58 1972.12 509.009 1973.25 511.195C1974.39 513.382 1976.03 515.264 1978.03 516.682C1980.04 518.099 1982.36 519.012 1984.78 519.341C1987.21 519.671 1989.68 519.409 1991.99 518.577L2006.96 513.179C2010.37 511.973 2014.09 511.962 2017.49 513.147C2020.9 514.333 2023.79 516.643 2025.69 519.697L2048.61 556.97C2049.7 558.737 2050.43 560.7 2050.77 562.748C2051.1 564.795 2051.03 566.886 2050.56 568.901C2050.08 570.916 2049.22 572.816 2048.01 574.49C2046.8 576.165 2045.27 577.583 2043.52 578.661C1983.02 615.527 1872.33 608.806 1871.31 512.67C1870.83 464.874 1870.8 413.344 1871.21 358.079C1871.27 351.562 1868.12 348.982 1861.73 350.34C1822.53 358.588 1827.21 323.658 1828.64 299.726C1828.86 296.253 1830.25 292.957 1832.58 290.37C1834.91 287.783 1838.04 286.057 1841.47 285.468L1871 280.478C1875.01 279.799 1877.52 277.491 1878.54 273.553C1883.43 254.611 1888.04 234.821 1892.39 214.182C1899.52 180.677 1929.56 188.926 1953.9 189.74C1958.68 189.925 1963.2 191.952 1966.51 195.392C1969.81 198.832 1971.65 203.415 1971.62 208.173L1971.41 272.535C1971.41 276.405 1973.35 278.34 1977.22 278.34H2021.11C2038.08 278.34 2046.61 286.792 2046.67 303.698L2046.77 323.454C2046.84 341.785 2037.71 350.917 2019.38 350.849L1977.93 350.747C1973.66 350.747 1971.52 352.919 1971.52 357.265Z" fill="black"/>
<path d="M576.559 320.639C576.602 332.876 574.234 345.002 569.59 356.323C564.947 367.645 558.119 377.941 549.497 386.624C540.874 395.307 530.626 402.207 519.337 406.929C508.048 411.651 495.939 414.104 483.703 414.146L224.424 415.052C212.187 415.094 200.062 412.727 188.74 408.083C177.418 403.44 167.122 396.612 158.439 387.99C149.756 379.367 142.857 369.119 138.134 357.83C133.412 346.541 130.959 334.432 130.917 322.195L130.865 307.327C130.822 295.09 133.19 282.965 137.833 271.643C142.477 260.322 149.305 250.025 157.927 241.342C166.55 232.659 176.798 225.76 188.087 221.037C199.376 216.315 211.484 213.863 223.721 213.82L483 212.915C495.237 212.872 507.362 215.24 518.684 219.883C530.005 224.526 540.302 231.354 548.985 239.977C557.668 248.599 564.567 258.848 569.289 270.137C574.012 281.426 576.464 293.534 576.507 305.771L576.559 320.639ZM280.083 314.594C274.04 302.442 277.129 293.582 289.35 288.014C289.985 287.72 290.533 287.261 290.934 286.686C291.335 286.111 291.574 285.443 291.626 284.753C291.679 284.062 291.542 283.376 291.231 282.766C290.919 282.157 290.445 281.648 289.859 281.293C262.227 264.252 240.094 267.816 223.46 291.986C214.363 305.361 212.699 324.371 218.47 349.016C218.927 350.934 219.959 352.671 221.431 353.997C222.903 355.324 224.747 356.179 226.719 356.45C248.445 359.437 270.51 359.573 292.914 356.857C294.675 356.668 296.354 356 297.77 354.924C299.187 353.847 300.29 352.404 300.96 350.747C304.083 343.279 305.305 334.589 304.626 324.676C304.286 320.671 302.148 319.041 298.21 319.788C294.476 320.603 290.708 320.637 286.906 319.89C283.783 319.211 281.508 317.446 280.083 314.594ZM468.687 296.874C471.132 292.937 474.526 290.153 478.871 288.524C482.809 287.03 483.081 284.993 479.686 282.413C463.528 270.193 447.912 267.545 432.84 274.47C407.313 286.283 398.623 311.064 406.77 348.812C407.167 350.613 408.086 352.254 409.411 353.524C410.735 354.794 412.404 355.635 414.204 355.941C436.473 359.675 458.945 359.946 481.621 356.755C484.948 356.28 487.392 354.515 488.953 351.46C492.823 343.652 494.487 334.826 493.943 324.982C493.74 320.908 491.635 319.211 487.629 319.89C477.446 321.655 470.724 317.378 467.465 307.058C466.311 303.46 466.719 300.065 468.687 296.874Z" fill="white"/>
<path d="M286.906 319.889C290.708 320.636 294.476 320.602 298.21 319.787C302.147 319.041 304.286 320.67 304.625 324.676C305.304 334.588 304.082 343.278 300.959 350.746C300.289 352.403 299.187 353.847 297.77 354.923C296.353 355.999 294.675 356.667 292.914 356.857C270.51 359.572 248.445 359.437 226.719 356.449C224.746 356.178 222.903 355.324 221.431 353.997C219.959 352.67 218.927 350.934 218.47 349.015C212.699 324.37 214.363 305.36 223.46 291.986C240.094 267.816 262.227 264.252 289.859 281.293C290.445 281.647 290.919 282.156 291.23 282.766C291.542 283.375 291.678 284.062 291.626 284.752C291.574 285.443 291.334 286.111 290.933 286.686C290.532 287.26 289.985 287.719 289.35 288.014C277.129 293.581 274.04 302.441 280.082 314.594C281.508 317.445 283.782 319.21 286.906 319.889Z" fill="black"/>
<path d="M467.465 307.056C470.724 317.376 477.445 321.653 487.629 319.888C491.635 319.209 493.739 320.906 493.943 324.98C494.486 334.824 492.823 343.65 488.953 351.458C487.391 354.513 484.947 356.278 481.62 356.754C458.944 359.945 436.472 359.673 414.203 355.939C412.403 355.634 410.735 354.792 409.41 353.522C408.086 352.252 407.166 350.611 406.769 348.81C398.622 311.062 407.312 286.281 432.84 274.468C447.912 267.543 463.527 270.191 479.685 282.412C483.08 284.991 482.809 287.028 478.871 288.522C474.526 290.151 471.131 292.935 468.687 296.873C466.718 300.064 466.311 303.458 467.465 307.056Z" fill="black"/>
<path d="M1605 465.003C1620.68 535.679 1681.99 530.281 1731.08 501.868C1746.76 492.839 1760.54 495.181 1772.42 508.895L1785.66 524.171C1797.68 538.021 1796.36 550.445 1781.69 561.444C1741.77 591.452 1696.52 603.843 1645.94 598.615C1565.62 590.332 1518.54 544.81 1504.69 462.05C1491.25 382.004 1530.46 302.978 1611.93 279.861C1640.58 271.713 1667.9 270.831 1693.91 277.213C1767.03 295.272 1802.53 346.7 1800.43 431.498C1800.02 445.857 1791.37 457.976 1776.09 457.874C1720.49 457.806 1665.39 457.772 1610.81 457.772C1605.85 457.772 1603.91 460.182 1605 465.003ZM1617.43 395.753L1716.82 395.142C1717.03 395.142 1717.24 395.099 1717.43 395.016C1717.62 394.933 1717.79 394.812 1717.94 394.659C1718.08 394.506 1718.19 394.325 1718.26 394.128C1718.33 393.931 1718.36 393.721 1718.35 393.512L1718.25 392.596C1718.14 380.403 1713.02 368.751 1704.01 360.197C1695 351.644 1682.83 346.887 1670.18 346.972H1663.25C1650.59 347.082 1638.48 352.036 1629.6 360.745C1620.72 369.454 1615.79 381.204 1615.9 393.41V394.327C1615.92 394.714 1616.1 395.077 1616.38 395.342C1616.66 395.607 1617.04 395.754 1617.43 395.753Z" fill="black"/>
<path d="M2836.74 303.391C2891.63 258.481 2979.82 260.925 3014.44 330.786C3023.61 349.253 3027.89 375.255 3027.28 408.794C3026.39 459.917 3026.36 514.027 3027.17 571.125C3027.45 587.283 3019.47 595.362 3003.24 595.362H2945.4C2932.63 595.362 2926.25 588.98 2926.25 576.217L2926.35 388.732C2926.35 361.1 2912.64 349.015 2885.21 352.478L2878.08 353.292C2853.37 356.415 2841.01 370.401 2841.01 395.25V572.958C2841.01 587.691 2833.61 595.091 2818.81 595.159L2763.11 595.464C2747.97 595.532 2740.4 587.996 2740.4 572.856V296.059C2740.39 291.491 2742.17 287.099 2745.34 283.812C2748.51 280.525 2752.84 278.599 2757.4 278.441C2780.01 277.83 2824.01 269.683 2829.1 300.54C2829.98 305.904 2832.53 306.854 2836.74 303.391Z" fill="black"/>
<path d="M3425.87 567.459C3398.78 592.579 3364.33 603.001 3322.5 598.723C3246.33 590.984 3214.76 507.578 3265.27 453.909C3296.74 420.302 3360.08 408.184 3404.38 408.082C3417.76 408.082 3422.98 401.564 3420.07 388.529L3417.21 375.29C3414.02 361.1 3405.2 353.428 3390.74 352.274C3370.37 350.577 3350.54 355.771 3331.26 367.856C3310.89 380.687 3292.67 378.175 3276.57 360.32C3274.74 358.215 3272.5 355.703 3269.85 352.783C3254.03 335.199 3256.04 319.958 3275.86 307.058C3346.95 260.823 3458.87 250.232 3505 336.184C3515.05 354.854 3519.66 382.452 3518.85 418.978C3517.63 474.514 3517.56 528.794 3518.64 581.818C3518.7 584.664 3517.73 587.433 3515.92 589.607C3514.1 591.781 3511.56 593.212 3508.77 593.631C3483 597.399 3446.24 602.186 3435.14 569.801C3433.24 564.302 3430.15 563.521 3425.87 567.459ZM3361 528.353C3395.52 534.871 3439.82 521.53 3430.05 476.314C3429.23 472.647 3426.96 470.814 3423.22 470.814C3396.03 471.018 3327.6 480.387 3352.85 522.65C3353.75 524.126 3354.94 525.396 3356.34 526.379C3357.75 527.361 3359.33 528.033 3361 528.353Z" fill="black"/>
<path d="M3709.08 498.007C3704.81 491.285 3699.04 486.804 3691.77 484.564C3647.07 470.918 3594.21 459.104 3575.78 411.851C3553.88 355.84 3585.55 297.996 3642.79 281.193C3696.22 265.577 3745.44 272.774 3790.45 302.782C3804.17 311.88 3805.83 322.811 3795.44 335.574C3791.57 340.395 3788.08 345.419 3784.95 350.646C3775.65 366.329 3762.96 369.928 3746.87 361.441C3728.43 351.665 3689.23 338.324 3671.81 355.229C3669.61 357.374 3668 360.049 3667.13 362.997C3666.26 365.945 3666.16 369.068 3666.85 372.064C3667.53 375.061 3668.97 377.831 3671.04 380.108C3673.1 382.385 3675.72 384.093 3678.63 385.068C3705.59 393.962 3730.27 403.263 3752.67 412.972C3841.07 451.365 3815.3 565.627 3733.42 590.781C3681.35 606.804 3630.23 601.373 3580.06 574.487C3562.2 564.914 3559.25 551.913 3571.2 535.483L3581.18 521.837C3594.82 503.099 3611.32 500.145 3630.67 512.977C3651.85 527.031 3674.22 531.274 3697.78 525.707C3700.63 525.02 3703.28 523.665 3705.51 521.755C3707.73 519.845 3709.47 517.435 3710.58 514.726C3711.68 512.017 3712.12 509.086 3711.86 506.178C3711.61 503.27 3710.65 500.469 3709.08 498.007Z" fill="black"/>
<path d="M2660.25 278.242H2587.54C2579.89 278.242 2573.69 284.443 2573.69 292.092V581.517C2573.69 589.166 2579.89 595.367 2587.54 595.367H2660.25C2667.9 595.367 2674.1 589.166 2674.1 581.517V292.092C2674.1 284.443 2667.9 278.242 2660.25 278.242Z" fill="black"/>
<path d="M3079.52 640.885C3083.13 639.378 3086.22 636.824 3088.4 633.544C3090.57 630.264 3091.73 626.405 3091.74 622.452L3091.84 293.005C3091.84 283.228 3096.7 278.34 3106.4 278.34H3179.42C3181.17 278.34 3182.9 278.686 3184.51 279.357C3186.13 280.029 3187.59 281.013 3188.82 282.253C3190.05 283.494 3191.02 284.965 3191.68 286.583C3192.34 288.201 3192.67 289.934 3192.66 291.681C3191.91 395.149 3192.02 497.87 3192.97 599.844C3193.24 622.384 3190.25 642.412 3184.01 659.929C3164.45 714.616 3099.78 725.614 3048.46 715.634C3039.29 713.801 3035.05 708.234 3035.73 698.933L3038.58 660.336C3039.46 648.251 3045.95 642.752 3058.03 643.838C3065.77 644.585 3072.93 643.6 3079.52 640.885Z" fill="black"/>
<path d="M658.005 595.463L671.855 674.897C671.968 675.518 671.903 676.158 671.668 676.745C671.434 677.331 671.039 677.839 670.528 678.211C670.018 678.583 669.414 678.804 668.784 678.848C668.154 678.892 667.524 678.758 666.967 678.461L593.847 640.883C593.361 640.624 592.819 640.489 592.268 640.489C591.718 640.489 591.176 640.624 590.69 640.883L519.098 679.785C518.54 680.082 517.911 680.216 517.281 680.172C516.651 680.128 516.046 679.907 515.536 679.535C515.026 679.163 514.631 678.655 514.396 678.069C514.162 677.482 514.097 676.842 514.209 676.221L528.569 595.768C528.663 595.239 528.63 594.694 528.47 594.18C528.311 593.666 528.03 593.198 527.652 592.815L468.484 534.563C468.042 534.12 467.733 533.562 467.591 532.952C467.449 532.342 467.481 531.704 467.682 531.112C467.883 530.519 468.246 529.994 468.73 529.596C469.213 529.198 469.798 528.943 470.419 528.86L551.991 517.76C552.533 517.685 553.048 517.478 553.491 517.159C553.935 516.839 554.294 516.416 554.537 515.927L590.588 443.418C590.877 442.865 591.314 442.404 591.85 442.085C592.386 441.766 593 441.603 593.624 441.614C594.247 441.624 594.856 441.808 595.381 442.145C595.906 442.481 596.327 442.957 596.597 443.52L632.24 515.418C632.483 515.907 632.842 516.33 633.286 516.65C633.73 516.969 634.245 517.175 634.786 517.251L715.951 529.777C716.564 529.876 717.136 530.142 717.607 530.546C718.077 530.95 718.427 531.476 718.616 532.066C718.806 532.657 718.829 533.288 718.682 533.891C718.535 534.493 718.225 535.043 717.784 535.48L659.024 592.509C658.627 592.882 658.328 593.346 658.15 593.861C657.973 594.375 657.923 594.925 658.005 595.463Z" fill="#FFEA52"/>
</svg>
