<svg width="3808" height="2140" viewBox="0 0 3808 2140" fill="none" xmlns="http://www.w3.org/2000/svg">
<path d="M506.164 1137.84L506.307 1401.4C506.307 1402.88 505.736 1404.29 504.719 1405.33C503.703 1406.38 502.324 1406.96 500.887 1406.96H326.318C324.805 1406.96 323.354 1406.36 322.284 1405.29C321.214 1404.22 320.613 1402.77 320.613 1401.26V591.88C320.614 590.618 321.121 589.406 322.026 588.501C322.932 587.595 324.164 587.068 325.462 587.031C448.022 586.461 559.219 587.221 659.055 589.313C726.372 590.739 786.226 608.71 838.615 643.224C952.713 718.386 961.127 910.355 884.825 1013.76C798.824 1130.13 645.933 1133.84 516.005 1128.42C509.444 1128.14 506.164 1131.28 506.164 1137.84ZM506.307 736.926V976.531C506.307 977.401 506.652 978.235 507.268 978.851C507.883 979.466 508.717 979.811 509.587 979.811H631.529C663.453 979.811 694.071 968.106 716.645 947.27C739.219 926.434 751.901 898.175 751.901 868.709V844.748C751.901 815.282 739.219 787.023 716.645 766.187C694.071 745.352 663.453 733.646 631.529 733.646H509.587C508.717 733.646 507.883 733.992 507.268 734.607C506.652 735.222 506.307 736.056 506.307 736.926Z" fill="#CA2D2A"/>
<path d="M1496.96 1076.94C1496.41 1077.19 1495.92 1077.56 1495.52 1078.01C1495.12 1078.47 1494.82 1079 1494.63 1079.57C1494.44 1080.15 1494.38 1080.75 1494.43 1081.36C1494.49 1081.96 1494.67 1082.54 1494.96 1083.07L1675.8 1400.97C1676.15 1401.58 1676.34 1402.26 1676.34 1402.96C1676.34 1403.66 1676.16 1404.35 1675.81 1404.95C1675.47 1405.56 1674.97 1406.06 1674.37 1406.42C1673.76 1406.77 1673.08 1406.96 1672.38 1406.96L1476.7 1407.11C1475.03 1407.11 1473.39 1406.64 1471.96 1405.76C1470.53 1404.88 1469.36 1403.62 1468.58 1402.12L1319.39 1121.01C1317.92 1118.25 1315.72 1115.94 1313.03 1114.33C1310.34 1112.72 1307.27 1111.87 1304.13 1111.88L1225.26 1111.6C1219.08 1111.6 1215.99 1114.69 1215.99 1120.87L1216.13 1398.69C1216.13 1404.3 1213.33 1407.11 1207.72 1407.11L1035.86 1406.82C1034.39 1406.82 1032.97 1406.25 1031.93 1405.23C1030.88 1404.22 1030.3 1402.84 1030.3 1401.4L1030.44 591.882C1030.44 590.747 1030.88 589.659 1031.65 588.856C1032.43 588.054 1033.48 587.603 1034.58 587.603C1154.19 586.367 1266.77 586.842 1372.31 589.029C1477.85 591.169 1591.66 639.375 1625.46 748.48C1665.39 877.41 1626.6 1015.75 1496.96 1076.94ZM1216.42 740.066L1215.56 956.28C1215.56 958.096 1216.29 959.837 1217.57 961.121C1218.85 962.405 1220.59 963.126 1222.41 963.126L1338.5 963.554C1354.13 963.615 1369.61 960.938 1384.07 955.674C1398.52 950.41 1411.67 942.663 1422.75 932.875C1433.84 923.088 1442.65 911.451 1448.67 898.631C1454.7 885.81 1457.83 872.057 1457.88 858.157V839.901C1457.98 811.841 1445.55 784.885 1423.33 764.96C1401.1 745.034 1370.9 733.771 1339.36 733.648L1223.27 733.22C1221.45 733.22 1219.71 733.941 1218.43 735.225C1217.14 736.509 1216.42 738.25 1216.42 740.066Z" fill="#CA2D2A"/>
<path d="M2903.78 980.097C2903.11 989.891 2906.39 991.459 2913.62 984.804C3077.06 833.91 3340.2 905.649 3334.5 1154.67C3330.36 1328.95 3179.61 1425.08 3016.74 1407.39C2798.95 1383.72 2728.92 1176.63 2738.34 987.799C2743.76 878.408 2774.56 767.733 2851.15 691.431C2977.66 565.353 3184.6 571.486 3319.81 689.577C3321.05 690.675 3321.81 692.223 3321.92 693.88C3322.03 695.538 3321.47 697.17 3320.38 698.419L3236.66 792.122C3230.95 798.492 3224.77 799.015 3218.12 793.691C3119.71 715.819 2979.65 729.939 2930.59 856.159C2915.66 894.477 2906.73 935.789 2903.78 980.097ZM3124.41 1052.55C3052.82 1009.33 2965.39 1046.42 2913.76 1107.32C2912.38 1108.97 2911.37 1110.9 2910.8 1112.97C2910.23 1115.04 2910.13 1117.2 2910.48 1119.3C2921.18 1187.33 2954.69 1259.64 3029 1272.19C3065.51 1278.27 3097.32 1271.28 3124.41 1251.22C3184.46 1206.72 3187.45 1090.63 3124.41 1052.55Z" fill="black"/>
<path d="M2354.26 1147.96C2450.1 1009.76 2388.49 814.229 2221.76 765.737C2216.82 764.311 2214.34 761.031 2214.34 755.896V609.709C2214.35 608.615 2214.59 607.534 2215.06 606.544C2215.52 605.555 2216.2 604.681 2217.05 603.986C2217.89 603.29 2218.88 602.791 2219.94 602.523C2221.01 602.255 2222.11 602.225 2223.19 602.435C2515.13 662.907 2659.75 989.511 2484.33 1239.53C2328.87 1461.02 2006.69 1469.15 1836.11 1263.06C1738.13 1144.83 1714.6 977.388 1778.35 839.045C1836.44 713.062 1936.33 634.24 2078 602.578C2078.96 602.364 2079.95 602.369 2080.91 602.592C2081.87 602.815 2082.77 603.251 2083.53 603.868C2084.3 604.484 2084.92 605.265 2085.34 606.152C2085.77 607.04 2085.99 608.012 2085.99 608.996V755.468C2085.99 762.219 2082.75 766.403 2076.29 768.019C2054.13 773.629 2033.83 783.042 2015.39 796.258C1923.06 862.435 1887.46 949.719 1908.56 1058.11C1949.35 1266.91 2232.6 1323.39 2354.26 1147.96Z" fill="#CA2D2A"/>
<path d="M2150.17 1117.44C2212.55 1117.44 2263.12 1066.87 2263.12 1004.48C2263.12 942.1 2212.55 891.527 2150.17 891.527C2087.78 891.527 2037.21 942.1 2037.21 1004.48C2037.21 1066.87 2087.78 1117.44 2150.17 1117.44Z" fill="black"/>
<path d="M1211.29 1498.1C1140.12 1470 1126.14 1603.64 1211.71 1578.96C1215.61 1577.82 1217.8 1579.2 1218.27 1583.1L1218.84 1586.81C1219.04 1588.33 1218.42 1589.28 1216.99 1589.66C1113.59 1622.32 1111.02 1471.71 1205.15 1483.12C1211.14 1483.79 1215.14 1486.93 1217.13 1492.54C1219.23 1498.62 1217.28 1500.47 1211.29 1498.1Z" fill="#CA2D2A"/>
<path d="M1631.59 1515.07C1633.11 1507.75 1632.73 1500.29 1630.45 1492.68C1629.81 1490.56 1629.91 1488.2 1630.74 1485.98C1633.02 1480.18 1636.87 1477.61 1642.29 1478.27C1643.84 1478.48 1645.26 1479.25 1646.28 1480.43C1647.31 1481.61 1647.87 1483.13 1647.85 1484.69L1647.57 1583.53C1647.57 1584.5 1647.37 1585.47 1646.99 1586.36C1646.6 1587.26 1646.04 1588.06 1645.33 1588.73C1644.62 1589.4 1643.78 1589.91 1642.87 1590.25C1641.95 1590.58 1640.98 1590.72 1640.01 1590.66C1628.6 1589.9 1617.62 1590.9 1607.06 1593.66C1605.12 1594.15 1603.1 1594.25 1601.11 1593.96C1599.13 1593.67 1597.23 1592.98 1595.51 1591.94C1556.86 1569.41 1571.55 1503.95 1626.17 1518.64C1626.76 1518.78 1627.38 1518.8 1627.98 1518.7C1628.58 1518.6 1629.15 1518.37 1629.66 1518.04C1630.17 1517.7 1630.6 1517.27 1630.94 1516.76C1631.27 1516.25 1631.49 1515.67 1631.59 1515.07ZM1610.67 1582.79C1613.46 1582.9 1616.25 1582.27 1618.88 1580.93C1621.51 1579.59 1623.93 1577.57 1626.01 1574.98C1628.08 1572.4 1629.76 1569.3 1630.97 1565.87C1632.17 1562.43 1632.86 1558.73 1633 1554.97C1633.3 1547.37 1631.34 1540 1627.56 1534.47C1623.79 1528.95 1618.5 1525.72 1612.87 1525.5C1610.08 1525.4 1607.29 1526.03 1604.66 1527.37C1602.03 1528.71 1599.61 1530.73 1597.53 1533.32C1595.46 1535.9 1593.77 1539 1592.57 1542.43C1591.37 1545.87 1590.68 1549.57 1590.53 1553.33C1590.24 1560.93 1592.2 1568.3 1595.97 1573.83C1599.75 1579.35 1605.04 1582.58 1610.67 1582.79Z" fill="#CA2D2A"/>
<path d="M2069.3 1511.5C2074.81 1534.42 2076.14 1559.71 2073.29 1587.38C2073.18 1588.39 2072.83 1589.37 2072.29 1590.23C2071.75 1591.09 2071.02 1591.83 2070.16 1592.37C2069.3 1592.92 2068.33 1593.27 2067.31 1593.39C2066.3 1593.51 2065.27 1593.41 2064.31 1593.08C2063.17 1592.7 2062.07 1592.13 2061.03 1591.37C2058.93 1589.56 2057.84 1587.28 2057.75 1584.53C2056.22 1552.39 2058.93 1521.49 2065.88 1491.82C2067.02 1487.16 2069.77 1483.83 2074.15 1481.84C2076.14 1480.98 2078.19 1480.7 2080.28 1480.98C2086.37 1481.93 2086.98 1484.31 2082.13 1488.11C2077 1492.11 2073.05 1496.96 2070.3 1502.66C2068.92 1505.32 2068.56 1508.46 2069.3 1511.5Z" fill="#CA2D2A"/>
<path d="M2305.18 1500.2C2309.68 1498.52 2312.18 1494.11 2310.78 1490.34C2309.37 1486.58 2304.58 1484.9 2300.08 1486.58C2295.58 1488.26 2293.07 1492.68 2294.48 1496.44C2295.89 1500.2 2300.67 1501.89 2305.18 1500.2Z" fill="#CA2D2A"/>
<path d="M1363.75 1554.58C1363.75 1564.98 1359.62 1574.95 1352.26 1582.31C1344.91 1589.67 1334.93 1593.8 1324.53 1593.8C1314.13 1593.8 1304.15 1589.67 1296.79 1582.31C1289.44 1574.95 1285.31 1564.98 1285.31 1554.58C1285.31 1544.17 1289.44 1534.2 1296.79 1526.84C1304.15 1519.49 1314.13 1515.36 1324.53 1515.36C1334.93 1515.36 1344.91 1519.49 1352.26 1526.84C1359.62 1534.2 1363.75 1544.17 1363.75 1554.58ZM1324.19 1583.24C1327.11 1583.26 1330.01 1582.54 1332.71 1581.12C1335.42 1579.7 1337.89 1577.6 1339.98 1574.96C1342.06 1572.31 1343.72 1569.16 1344.86 1565.69C1346.01 1562.22 1346.61 1558.5 1346.63 1554.73C1346.66 1550.97 1346.11 1547.24 1345.02 1543.75C1343.92 1540.26 1342.31 1537.09 1340.26 1534.42C1338.21 1531.74 1335.77 1529.61 1333.08 1528.15C1330.39 1526.69 1327.51 1525.93 1324.58 1525.91C1321.66 1525.89 1318.76 1526.61 1316.06 1528.03C1313.35 1529.45 1310.88 1531.55 1308.79 1534.2C1306.71 1536.84 1305.05 1539.99 1303.91 1543.46C1302.76 1546.93 1302.16 1550.66 1302.14 1554.42C1302.11 1558.19 1302.66 1561.92 1303.75 1565.4C1304.85 1568.89 1306.46 1572.06 1308.51 1574.74C1310.56 1577.41 1313 1579.54 1315.69 1581C1318.38 1582.46 1321.26 1583.22 1324.19 1583.24Z" fill="#CA2D2A"/>
<path d="M1485.12 1537.89C1479.89 1528.57 1474 1524.82 1467.44 1526.62C1456.12 1529.76 1450.51 1537.18 1450.61 1548.87L1450.89 1586.81C1450.99 1591.56 1448.66 1593.7 1443.9 1593.23L1438.63 1592.8C1437.29 1592.66 1436.05 1592.01 1435.15 1590.98C1434.26 1589.95 1433.77 1588.62 1433.78 1587.24L1434.2 1526.05C1434.3 1520.16 1437.25 1517.59 1443.05 1518.35C1452.65 1519.4 1462.16 1518.68 1471.57 1516.21C1474.63 1515.41 1477.82 1515.25 1480.94 1515.73C1484.06 1516.21 1487.05 1517.33 1489.73 1519.02C1492.4 1520.7 1494.7 1522.92 1496.48 1525.52C1498.27 1528.13 1499.5 1531.08 1500.1 1534.18C1503.23 1550.06 1503.99 1567.36 1502.38 1586.1C1501.81 1592.37 1498.57 1594.51 1492.68 1592.51C1491.25 1592.04 1489.97 1591.37 1488.83 1590.52C1487.5 1589.47 1486.83 1588.14 1486.83 1586.52V1544.16C1486.83 1541.92 1486.24 1539.75 1485.12 1537.89Z" fill="#CA2D2A"/>
<path d="M1753.88 1594.63C1748.92 1594.18 1744.1 1592.7 1739.7 1590.27C1735.3 1587.84 1731.4 1584.51 1728.23 1580.47C1725.06 1576.43 1722.68 1571.76 1721.23 1566.73C1719.77 1561.7 1719.27 1556.4 1719.75 1551.14C1720.22 1545.88 1721.68 1540.76 1724.02 1536.07C1726.36 1531.38 1729.54 1527.22 1733.39 1523.82C1737.24 1520.42 1741.67 1517.85 1746.44 1516.26C1751.2 1514.66 1756.21 1514.07 1761.17 1514.52C1766.13 1514.97 1770.95 1516.46 1775.35 1518.89C1779.75 1521.32 1783.65 1524.65 1786.82 1528.69C1789.99 1532.72 1792.37 1537.39 1793.83 1542.43C1795.29 1547.46 1795.79 1552.75 1795.31 1558.01C1794.83 1563.27 1793.38 1568.39 1791.04 1573.08C1788.7 1577.77 1785.51 1581.93 1781.67 1585.33C1777.82 1588.73 1773.39 1591.3 1768.62 1592.9C1763.85 1594.49 1758.84 1595.08 1753.88 1594.63ZM1757.33 1582.82C1760.23 1582.84 1763.11 1582.12 1765.8 1580.71C1768.5 1579.31 1770.95 1577.23 1773.02 1574.61C1775.09 1571.99 1776.74 1568.87 1777.88 1565.44C1779.01 1562 1779.61 1558.31 1779.63 1554.59C1779.66 1550.86 1779.11 1547.17 1778.03 1543.71C1776.94 1540.26 1775.33 1537.12 1773.3 1534.47C1771.27 1531.82 1768.84 1529.72 1766.17 1528.27C1763.5 1526.83 1760.63 1526.07 1757.73 1526.05C1754.82 1526.03 1751.94 1526.75 1749.25 1528.15C1746.56 1529.56 1744.11 1531.63 1742.04 1534.26C1739.96 1536.88 1738.31 1539.99 1737.18 1543.43C1736.04 1546.87 1735.45 1550.55 1735.42 1554.28C1735.4 1558.01 1735.94 1561.7 1737.03 1565.15C1738.12 1568.6 1739.72 1571.74 1741.76 1574.39C1743.79 1577.04 1746.21 1579.15 1748.88 1580.6C1751.56 1582.04 1754.43 1582.8 1757.33 1582.82Z" fill="#CA2D2A"/>
<path d="M1952.49 1527.76C1946.03 1526.81 1941.03 1528.62 1937.52 1533.18C1933.81 1538.03 1932.24 1543.64 1932.81 1550.01C1934.05 1563.51 1934.05 1576.54 1932.81 1589.09C1932.73 1589.85 1932.48 1590.58 1932.07 1591.22C1931.66 1591.86 1931.11 1592.41 1930.45 1592.81C1929.79 1593.2 1929.04 1593.45 1928.26 1593.52C1927.48 1593.6 1926.7 1593.49 1925.96 1593.23L1921.11 1591.51C1918.83 1590.66 1917.74 1589.04 1917.83 1586.67L1917.98 1542.6C1918.07 1532.8 1913.22 1527.81 1903.43 1527.62C1892.69 1527.43 1886.98 1532.56 1886.31 1543.02C1885.36 1558.05 1885.13 1573.07 1885.6 1588.09C1885.7 1591.32 1884.13 1592.89 1880.9 1592.8L1877.19 1592.66C1875.78 1592.62 1874.43 1592.05 1873.45 1591.06C1872.46 1590.07 1871.91 1588.75 1871.91 1587.38L1870.34 1527.33C1870.15 1523.25 1872.05 1520.73 1876.05 1519.78C1894.02 1515.21 1911.08 1515.64 1927.25 1521.06C1932.67 1522.87 1937.75 1522.2 1942.51 1519.06C1953.25 1512.03 1963 1512.98 1971.75 1521.92C1977.74 1528.1 1980.59 1536.51 1980.3 1547.16C1979.92 1561.61 1979.16 1575.78 1978.02 1589.66C1977.95 1590.53 1977.55 1591.35 1976.89 1591.96C1976.23 1592.56 1975.37 1592.91 1974.45 1592.94L1970.03 1593.08C1966.52 1593.18 1964.76 1591.47 1964.76 1587.95L1965.47 1543.02C1965.56 1534.18 1961.24 1529.09 1952.49 1527.76Z" fill="#CA2D2A"/>
<path d="M2179.55 1528.48C2152.16 1540.31 2173.41 1569.84 2161.86 1590.23C2161.21 1591.47 2160.16 1592.44 2158.88 1593C2157.6 1593.55 2156.17 1593.66 2154.83 1593.29C2153.48 1592.93 2152.3 1592.11 2151.48 1590.99C2150.66 1589.86 2150.24 1588.49 2150.31 1587.09L2150.59 1526.19C2150.59 1519.92 2153.68 1517.26 2159.86 1518.21C2169.28 1519.54 2178.5 1518.92 2187.53 1516.35C2190.65 1515.47 2193.91 1515.24 2197.12 1515.7C2200.33 1516.16 2203.4 1517.28 2206.15 1519C2208.89 1520.72 2211.24 1523 2213.05 1525.69C2214.85 1528.38 2216.07 1531.42 2216.63 1534.61C2219.38 1549.82 2220.19 1566.37 2219.05 1584.24C2218.67 1590.9 2215.2 1593.7 2208.64 1592.66C2207.12 1592.37 2205.74 1591.61 2204.5 1590.37C2203.55 1589.23 2203.08 1587.95 2203.08 1586.52L2203.22 1544.02C2203.25 1541.22 2202.57 1538.46 2201.25 1535.99C2199.93 1533.51 2198 1531.41 2195.65 1529.87C2193.3 1528.32 2190.6 1527.39 2187.78 1527.14C2184.97 1526.9 2182.14 1527.36 2179.55 1528.48Z" fill="#CA2D2A"/>
<path d="M2418.29 1594.51C2408.23 1593.64 2398.94 1588.61 2392.47 1580.51C2385.99 1572.41 2382.87 1561.91 2383.78 1551.32C2384.68 1540.73 2389.55 1530.92 2397.31 1524.04C2405.07 1517.17 2415.08 1513.79 2425.14 1514.65C2435.2 1515.51 2444.49 1520.54 2450.96 1528.64C2457.44 1536.74 2460.56 1547.24 2459.66 1557.83C2458.75 1568.42 2453.88 1578.23 2446.12 1585.11C2438.37 1591.99 2428.36 1595.37 2418.29 1594.51ZM2421.27 1583.1C2424.19 1583.15 2427.09 1582.45 2429.82 1581.06C2432.54 1579.67 2435.02 1577.61 2437.13 1574.99C2439.24 1572.38 2440.93 1569.26 2442.1 1565.82C2443.27 1562.37 2443.9 1558.67 2443.96 1554.93C2444.02 1551.18 2443.5 1547.46 2442.44 1543.99C2441.38 1540.51 2439.79 1537.34 2437.76 1534.66C2435.74 1531.98 2433.32 1529.84 2430.64 1528.36C2427.97 1526.89 2425.09 1526.1 2422.16 1526.06C2419.24 1526.01 2416.34 1526.7 2413.62 1528.09C2410.9 1529.48 2408.41 1531.55 2406.3 1534.16C2404.2 1536.78 2402.51 1539.9 2401.34 1543.34C2400.16 1546.78 2399.53 1550.48 2399.47 1554.23C2399.41 1557.97 2399.93 1561.69 2400.99 1565.17C2402.06 1568.65 2403.65 1571.82 2405.67 1574.5C2407.69 1577.18 2410.11 1579.32 2412.79 1580.79C2415.47 1582.27 2418.35 1583.05 2421.27 1583.1Z" fill="#CA2D2A"/>
<path d="M2560.35 1579.39C2561.43 1578.08 2562.18 1576.52 2562.53 1574.85C2562.88 1573.19 2562.82 1571.46 2562.36 1569.82C2561.89 1568.18 2561.04 1566.68 2559.87 1565.44C2558.7 1564.2 2557.25 1563.26 2555.64 1562.71C2541.47 1557.86 2532.34 1550.44 2528.26 1540.46C2524.55 1531.14 2528.07 1523.96 2538.81 1518.92C2551.65 1512.74 2562.1 1513.22 2570.19 1520.35C2576.94 1526.24 2575.94 1528.29 2567.19 1526.48C2559.87 1525.05 2553.59 1525.91 2548.36 1529.05C2541.42 1533.04 2541.23 1537.27 2547.79 1541.74L2574.89 1560.57C2577.27 1562.22 2578.97 1564.67 2579.68 1567.48C2580.38 1570.28 2580.05 1573.25 2578.74 1575.83C2570.76 1591.9 2557.3 1598.41 2538.38 1595.37C2533.44 1594.51 2530.3 1591.75 2528.97 1587.09C2526.97 1579.68 2529.21 1578.06 2535.67 1582.25C2545.46 1588.52 2553.69 1587.57 2560.35 1579.39Z" fill="#CA2D2A"/>
<path d="M2305.66 1519.05L2301.66 1519.08C2298.51 1519.1 2295.98 1521.67 2296 1524.82L2296.42 1585.58C2296.44 1588.73 2299.02 1591.26 2302.17 1591.24L2306.16 1591.21C2309.31 1591.19 2311.85 1588.62 2311.82 1585.47L2311.4 1524.71C2311.38 1521.56 2308.81 1519.03 2305.66 1519.05Z" fill="#CA2D2A"/>
</svg>
